<?xml version="1.0" encoding="UTF-8" standalone="no"?>
<!-- Created with Inkscape (http://www.inkscape.org/) -->

<svg
   viewBox="0 0 2500 1250"
   version="1.1"
   id="svg5"
   xml:space="preserve"
   xmlns="http://www.w3.org/2000/svg">
<defs
   id="defs2">
<marker
	id="arrow"
	viewBox="0 0 10 20"
	refX="9"
	refY="10"
	fill="none"
	stroke="#000"
	markerWidth="10"
	markerHeight="20"
	style="overflow: visible;"
	orient="auto-start-reverse">
	<path d="M 0 0 L 10 10 L 0 20" stroke-width="3"/>
</marker>
<marker
	id="arrow_rev"
	viewBox="0 0 10 20"
	refX="5"
	refY="10"
	fill="none"
	stroke="#000"
	markerWidth="10"
	markerHeight="20"
	style="overflow: visible;"
	orient="auto-start-reverse">
	<path d="M 10 0 L 0 10 L 10 20" stroke-width="3"/>
</marker>
<marker
     style="overflow:visible"
     id="Arrow_3"
     refX="0"
     refY="0"
     orient="auto-start-reverse"
     markerWidth="7.2121825"
     markerHeight="12"
     viewBox="0 0 4.2071068 7"
     preserveAspectRatio="xMidYMid"
     markerUnits="userSpaceOnUse">
<path
   style="fill:none;stroke:context-stroke;stroke-width:1;stroke-linecap:round"
   d="M 3,-3 0,0 3,3"
   id="arrow3-3"
   transform="rotate(180,0.125,0)" />
</marker>
<marker
     style="overflow:visible"
     id="rear_arrow_0"
     refX="0"
     refY="0"
     orient="auto-start-reverse"
     markerWidth="7.2121825"
     markerHeight="12"
     viewBox="0 0 4.2071068 7"
     preserveAspectRatio="xMidYMid"
     markerUnits="userSpaceOnUse">
<path
   style="fill:none;stroke:context-stroke;stroke-width:1;stroke-linecap:round"
   d="M 0.45710678,3 -2.5428932,0 0.45710678,-3"
   id="path11997-6" />
</marker>
</defs>
<g
   id="tributaries"
   fill="none"
   stroke-width="2"
   stroke-dasharray="none"
   stroke="#00caff"
   stroke-opacity="1"
   stroke-linecap="round"
   stroke-linejoin="round">
<path
   d="m 1773.6288,1150.85 c -0.4018,8.5752 -0.8035,17.1495 -5.3026,21.341 -4.4991,4.1914 -13.0963,4.0009 -17.5829,7.9087 -4.4865,3.9078 -4.861,11.9126 -2.8169,18.7635 2.044,6.8509 6.5054,12.547 4.5651,17.7384 -1.9404,5.1914 -10.2818,9.879 -14.5565,15.2876 -4.2747,5.4086 -4.4818,11.5365 -4.6889,17.6637"
   id="river_Kleebach" />
<path
   d="m 1856.3249,1176.2674 c 1.5568,5.4503 3.1133,10.9 4.9829,14.3212 1.8697,3.4212 4.0521,4.8159 10.7567,5.0863 6.7046,0.2704 17.9274,-0.5826 29.4964,-2.4502 11.569,-1.8677 23.4775,-4.749 36.7083,-4.2106 13.2308,0.5383 27.7804,4.4961 35.5118,9.6459 7.7314,5.1498 8.6445,11.4902 12.6649,13.6253 4.0204,2.1351 11.1471,0.066 16.8278,2.2895 5.6807,2.2236 9.9144,8.7382 16.2051,11.6629 6.2908,2.9248 14.6377,2.2605 19.0758,5.5311 4.438,3.2707 4.9676,10.4749 5.4972,17.6783"
   id="river_Wieseck" />
<path
   d="m 1996.7608,1088.6629 c 3.1383,4.8179 6.2758,9.6345 10.3452,9.7143 4.0694,0.08 9.0708,-4.5759 14.8649,-4.3216 5.7941,0.2544 12.379,5.4178 16.5333,11.5803 4.1543,6.1624 5.8782,13.3227 11.754,14.7079 5.8759,1.3853 15.9029,-3.0032 21.8142,-6.6222 5.9113,-3.6191 7.7071,-6.4688 12.8598,-6.1953 5.1527,0.2735 13.6605,3.67 20.4942,2.928 6.8338,-0.7421 11.9942,-5.622 19.5224,-5.4253 7.5282,0.1966 17.4221,5.4691 20.5227,11.8845 3.1006,6.4154 -0.5911,13.9733 1.0829,18.1278 1.674,4.1545 8.7122,4.9053 13.7864,6.9513 5.0742,2.046 8.1839,5.3861 15.7152,8.3401 7.5313,2.9541 19.4832,5.5226 27.7635,6.3283 8.2803,0.8057 12.8889,-0.1509 16.9014,2.3149 4.0125,2.4657 7.4283,8.3521 11.9127,11.6532 4.4843,3.301 10.0359,4.0172 14.7457,6.2131 4.7099,2.1959 8.5771,5.8704 10.3079,10.4078 1.7308,4.5374 1.326,9.9374 3.0833,14.695 1.7574,4.7576 5.6757,8.8724 6.4843,13.2268 0.8086,4.3544 -1.4913,8.9485 -0.3206,13.0533 1.1708,4.1048 5.8107,7.7191 7.5217,11.2537 1.711,3.5346 0.4939,6.9891 -0.723,10.4432"
   id="river_Lumda" />
<path
   d="m 2121.7027,996.70819 c 5.3543,2.4392 10.7072,4.87781 15.893,5.92821 5.1858,1.0505 10.2042,0.7134 13.4422,-0.6619 3.238,-1.3753 4.6965,-3.78898 7.1165,-3.13153 2.42,0.65746 5.7999,4.38523 10.7906,6.28173 4.9906,1.8966 11.5911,1.9627 17.4641,3.7378 5.8731,1.7751 11.018,5.2582 14.0178,8.9567 2.9998,3.6985 3.8554,7.6116 7.0901,8.7053 3.2346,1.0937 8.8476,-0.6308 13.7872,-0.092 4.9397,0.5385 9.2046,3.339 13.1458,3.3547 3.9412,0.016 7.5592,-2.7525 11.9566,-3.6347 4.3974,-0.8823 9.5726,0.1212 16.6555,-0.4131 7.0829,-0.5342 16.0735,-2.6058 22.3517,-2.3797 6.2781,0.226 9.8431,2.7486 13.5957,3.7496 3.7527,1.001 7.693,0.4812 11.7144,0.8122 4.0215,0.331 8.1233,1.5122 13.0592,0.7675 4.9359,-0.7446 10.7065,-3.415 13.4381,-1.4974 2.7316,1.9176 2.4258,8.4221 2.7817,14.3805 0.356,5.9584 1.373,11.3675 0.6196,14.8064 -0.7535,3.439 -3.2771,4.9061 -2.936,8.4383 0.3412,3.5321 3.5471,9.1274 4.3861,15.3698 0.8391,6.2424 -0.688,13.1318 0.8462,17.6978 1.5343,4.5659 6.1292,6.8086 8.467,10.5283 2.3378,3.7197 2.4212,8.9177 3.6369,13.5989 1.2157,4.6812 3.5617,8.8422 3.1776,13.4247 -0.3842,4.5826 -3.4977,9.5829 -3.306,14.683 0.1916,5.1002 3.6882,10.2982 4.4548,14.4165 0.7665,4.1183 -1.1959,7.1577 -0.6424,10.4217 0.5535,3.264 3.6216,6.7515 5.2148,11.0161 1.5932,4.2647 1.7121,9.3062 4.4655,12.2938 2.7534,2.9876 8.1401,3.9219 13.5257,4.856"
   id="river_Zweester" />
<path
   d="m 2477.2952,759.16851 c 3.6508,-0.95875 7.3009,-1.91732 8.6761,-0.46146 1.3752,1.45585 0.4763,5.32567 0.9957,9.70166 0.5195,4.37599 2.4567,9.25948 2.2339,14.72281 -0.2228,5.46333 -2.6043,11.50377 -2.6324,15.93436 -0.028,4.43059 2.2963,7.24751 4.8552,8.13653 2.559,0.88903 5.3523,-0.14896 8.1451,-1.18678"
   id="river_Ohm" />
<path
   d="m 2484.791,716.87733 c -1.1976,-6.16895 -2.3949,-12.33667 -2.5804,-18.12291 -0.1855,-5.78623 0.6415,-11.18688 -0.3909,-14.20579 -1.0324,-3.01891 -3.9263,-3.65662 -4.6968,-5.22623 -0.7704,-1.56961 0.5836,-4.07119 -0.5994,-5.92729 -1.1829,-1.8561 -4.904,-3.06656 -5.5996,-9.32548 -0.6955,-6.25893 1.6358,-17.56596 2.2716,-26.16353 0.6358,-8.59758 -0.4244,-14.48517 -2.5581,-20.35952 -2.1337,-5.87436 -5.3411,-11.73506 -5.6367,-15.33976 -0.2956,-3.60469 2.3207,-4.95143 2.7339,-7.5713 0.4133,-2.61988 -1.3767,-6.51401 -1.2457,-9.205 0.1311,-2.69099 2.1837,-4.17741 2.699,-5.56129 0.5153,-1.38389 -0.5073,-2.66633 0.7117,-4.86894 1.2191,-2.2026 4.6795,-5.32308 4.5988,-8.53018 -0.081,-3.2071 -3.7025,-6.49679 -5.5497,-10.80425 -1.8472,-4.30745 -1.9154,-9.62772 -1.1146,-15.9655 0.8007,-6.33779 2.4715,-13.69901 4.8161,-18.41095 2.3446,-4.71194 5.363,-6.7759 7.6655,-8.90619 2.3025,-2.13028 3.8894,-4.32714 4.7455,-7.82807 0.856,-3.50093 0.9811,-8.30652 2.3437,-11.06526 1.3626,-2.75874 3.9616,-3.46931 6.2442,-5.10575 2.2825,-1.63645 4.249,-4.19892 6.2157,-6.76156"
   id="river_Wetschaft" />
<path
   d="m 2468.2742,553.36676 c -4.968,-5.53681 -9.9368,-11.07454 -15.118,-12.39372 -5.1811,-1.31918 -10.5735,1.5815 -14.4093,0.39602 -3.8357,-1.18547 -6.1146,-6.45832 -15.0052,-8.50691 -8.8905,-2.0486 -24.3918,-0.87138 -29.0405,-2.72897 -4.6488,-1.85758 1.5566,-6.74972 4.6197,-12.65536 3.0631,-5.90564 2.9838,-12.82519 1.6626,-20.08973 -1.3211,-7.26454 -3.8843,-14.87347 -7.2117,-20.30916 -3.3274,-5.43569 -7.4194,-8.69732 -11.6493,-13.76609 -4.2299,-5.06877 -8.597,-11.94444 -13.3436,-16.11058 -4.7466,-4.16615 -9.8727,-5.62166 -13.4932,-9.17736 -3.6204,-3.5557 -5.734,-9.21206 -6.0884,-18.72818 -0.3544,-9.51611 1.051,-22.89055 1.3348,-31.97869 0.2837,-9.08814 -0.5545,-13.8892 -3.4042,-21.56283 -2.8497,-7.67362 -7.7111,-18.21893 -12.6595,-26.38215 -4.9483,-8.16323 -9.9834,-13.9431 -15.5595,-20.64838 -5.576,-6.70529 -11.6922,-14.33524 -17.8095,-21.96652"
   id="river_Treisbach" />
<path
   d="m 1458.1705,987.9822 c -6.654,7.74048 -13.3078,15.4807 -17.9615,23.2097 -4.6537,7.7291 -7.3067,15.4456 -12.7504,20.4996 -5.4436,5.0539 -13.6786,7.4457 -17.4966,13.786 -3.818,6.3403 -3.2193,16.6288 -2.8055,27.0517 0.4138,10.423 0.6426,20.9772 -3.3719,31.4622 -4.0144,10.4849 -12.2705,20.8969 -15.5971,32.9208 -3.3266,12.024 -1.723,25.6569 -3.6816,35.3568 -1.9586,9.7 -7.479,15.4667 -9.1518,21.9165 -1.6729,6.4498 0.5014,13.5808 0.2398,19.1377 -0.2616,5.5569 -2.9586,9.54 -3.9351,15.457 -0.9764,5.917 -0.2323,13.7663 0.5117,21.6146"
   id="river_Solmsbach" />
<path
   d="m 1155.5097,982.44385 c -0.6848,2.29576 -1.3694,4.59083 0.2608,6.15512 1.6302,1.56429 5.5734,2.39803 7.176,9.29255 1.6026,6.89448 0.8654,19.84848 0.3413,28.38168 -0.524,8.5331 -0.835,12.6449 3.0733,17.9907 3.9084,5.3458 12.0344,11.9251 16.8343,18.8998 4.7999,6.9747 6.274,14.344 12.1715,19.624 5.8975,5.2799 16.2167,8.4711 24.3278,16.8175 8.111,8.3463 14.0136,21.8461 15.8102,33.4471 1.7966,11.6011 -0.5123,21.3027 -1.9216,29.7924 -1.4094,8.4898 -1.9191,15.767 -1.5909,25.705 0.3282,9.9381 1.4941,22.5359 0.2383,32.6408 -1.2557,10.1049 -4.9328,17.7165 -8.1742,22.2577 -3.2414,4.5411 -6.0474,6.0121 -8.8539,7.4834"
   id="river_Weil" />
<path
   d="m 816.93613,960.0394 c 2.07532,1.82737 4.14988,3.65407 5.60863,6.73374 1.45876,3.07966 2.30327,7.41321 2.99046,12.1119 0.68719,4.69869 1.21673,9.75911 5.32019,13.0456 4.10345,3.28649 11.77596,4.79624 12.74597,7.33766 0.97001,2.5414 -4.7645,6.1151 -6.93896,9.8608 -2.17447,3.7458 -0.79093,7.6645 0.50536,12.1131 1.29629,4.4486 2.50433,9.4228 0.61257,20.0153 -1.89177,10.5925 -6.88121,26.7923 -11.12125,36.1244 -4.24003,9.332 -7.72934,11.7921 -6.64494,14.3483 1.0844,2.5562 6.74139,5.2076 9.27765,9.4495 2.53626,4.2419 1.95286,10.0736 5.722,13.3231 3.76915,3.2494 11.8892,3.9172 13.86371,7.9432 1.97451,4.026 -2.19551,11.4095 -1.12939,19.174 1.06613,7.7646 7.36724,15.9085 10.26306,21.894 2.89582,5.9854 2.38701,9.8119 4.01011,11.6991 1.6231,1.8871 5.37681,1.8355 6.46255,7.2935 1.08574,5.4581 -0.49551,16.4242 0.78747,23.976 1.28298,7.5518 5.42783,11.6868 6.74408,14.3227 1.31624,2.6359 -0.19727,3.771 -1.51215,4.9679 -1.31487,1.1969 -2.43127,2.4557 -1.64534,3.5641 0.78593,1.1083 3.4735,2.067 6.00103,5.483 2.52753,3.4161 4.89266,9.2829 7.25899,15.1528"
   id="river_Emsbach" />
<path
   d="m 829.27268,1102.1325 c -4.95169,5.6038 -9.90314,11.2074 -11.54584,16.2854 -1.6427,5.0779 0.023,9.6284 -0.64916,18.8688 -0.67216,9.2404 -3.68151,23.1699 -4.26039,33.6478 -0.57889,10.4779 1.27233,17.5024 1.10694,24.1797 -0.16539,6.6773 -2.34682,13.0073 -1.84278,18.5584 0.50404,5.5511 3.69251,10.3219 5.33577,16.2369 1.64326,5.915 1.74187,12.9737 1.84046,20.0314"
   id="river_Woersbach" />
<path
   d="m 657.17196,926.57445 c 2.43062,1.11461 4.86039,2.22883 6.86277,6.10163 2.00238,3.8728 3.57922,10.50481 5.68038,16.44832 2.10116,5.94352 4.72495,11.19526 4.08127,16.28092 -0.64368,5.08567 -4.5541,10.00275 -5.70051,14.66258 -1.1464,4.65983 0.47124,9.06022 2.87518,12.61027 2.40395,3.55004 5.59334,6.24967 5.19333,9.87673 -0.40001,3.627 -4.38832,8.1821 -5.51091,12.1266 -1.12258,3.9445 0.61984,7.2772 -0.12311,9.745 -0.74294,2.4677 -3.97098,4.0717 -4.59586,8.3689 -0.62488,4.2971 1.35343,11.2855 -0.32305,16.1283 -1.67648,4.8429 -7.00761,7.541 -7.47453,12.5619 -0.46691,5.0208 3.93013,12.3624 3.13954,18.5013 -0.79059,6.139 -6.76814,11.076 -11.82161,13.519 -5.05346,2.443 -9.18314,2.3917 -11.61231,6.2685 -2.42918,3.8768 -3.15641,11.6804 -5.17857,15.6078 -2.02216,3.9274 -5.34006,3.9791 -7.93577,6.6512 -2.59571,2.6721 -4.46767,7.9636 -9.00764,10.0974 -4.53996,2.1339 -11.74867,1.1102 -16.55798,6.4527 -4.80931,5.3425 -7.21731,17.0499 -16.83792,25.643 -9.6206,8.5931 -26.45334,14.0719 -35.69021,19.7131 -9.23688,5.6413 -10.87587,11.4435 -11.35517,16.3697 -0.47929,4.9262 0.20079,8.9757 -1.88986,12.3478 -2.09065,3.372 -6.95185,6.0678 -8.64758,10.7205 -1.69572,4.6527 -0.22564,11.2603 -2.00863,16.0903 -1.78299,4.8299 -6.81898,7.883 -11.85537,10.9364"
   id="river_Aar" />
<path
   d="m 2174.8335,278.40917 c -4.8503,3.28436 -9.7006,6.56869 -13.677,11.25487 -3.9763,4.68617 -7.0778,10.77302 -9.3576,11.77694 -2.2799,1.00391 -3.7384,-3.07607 -6.5473,-4.65388 -2.8089,-1.57781 -6.9681,-0.6519 -10.903,-0.71151 -3.9349,-0.0596 -7.6454,-1.10525 -11.7981,-1.3485 -4.1526,-0.24325 -8.7468,0.31636 -10.8112,2.81361 -2.0645,2.49725 -1.5984,6.93071 -3.3848,8.34643 -1.7863,1.41572 -5.8259,-0.18569 -9.2077,2.13827 -3.3818,2.32397 -6.1041,8.57296 -10.6354,12.51457 -4.5313,3.94162 -10.8719,5.57588 -13.8609,10.03145 -2.989,4.45557 -2.6253,11.73067 0.9384,20.51733 3.5637,8.78665 10.3262,19.08369 10.8956,26.63591 0.5694,7.55222 -5.0537,12.35987 -10.1485,15.80521 -5.0947,3.44534 -9.6607,5.52792 -13.6136,8.95559 -3.9529,3.42767 -7.2917,8.19967 -13.3148,13.39498 -6.023,5.19532 -14.7302,10.81381 -18.8854,16.296 -4.1552,5.4822 -3.7579,10.8262 -2.3163,14.4049 1.4415,3.5787 3.9262,5.39189 3.9665,8.43691 0.04,3.04502 -2.3624,7.32223 -2.469,11.10429 -0.1066,3.78205 2.0817,7.06787 0.8244,9.82348 -1.2573,2.75561 -5.9598,4.98205 -10.7528,9.87097 -4.7929,4.88891 -9.6752,12.43939 -15.3371,15.25672 -5.6618,2.81733 -12.1039,0.90115 -15.1175,2.44717 -3.0137,1.54603 -2.5973,6.55334 -4.9406,8.84188 -2.3433,2.28855 -7.4468,1.85907 -7.8227,7.45355 -0.376,5.59449 3.9765,17.2112 2.7924,23.47277 -1.1842,6.26158 -7.905,7.16861 -11.4513,9.1364 -3.5462,1.96778 -3.9164,4.99515 -4.2865,8.02173"
   id="river_Perf" />
<path
   d="m 267.22303,831.83311 c -0.85517,5.00335 -1.71019,10.0058 -3.74339,13.69226 -2.0332,3.68646 -5.24466,6.05751 -3.06827,9.39942 2.17639,3.34191 9.73936,7.65345 13.63407,12.37157 3.89472,4.71812 4.12183,9.84186 -0.39297,11.92921 -4.51481,2.08735 -13.77204,1.13897 -18.4229,2.38272 -4.65086,1.24375 -4.69367,4.6786 -7.70494,5.65071 -3.01126,0.97211 -8.99182,-0.51795 -12.66383,0.48156 -3.67201,0.99952 -5.03366,4.48826 -4.03266,7.7373 1.001,3.24903 4.36327,6.25758 5.07151,9.46637 0.70824,3.20879 -1.2364,6.61804 -3.64676,7.79163 -2.41035,1.17359 -5.28755,0.11125 -7.16148,0.59728 -1.87392,0.48604 -2.74296,2.52033 -3.01256,4.73412 -0.2696,2.2138 0.0599,4.60622 -3.02089,7.17035 -3.08082,2.56414 -9.57193,5.3011 -14.39302,10.15729 -4.82108,4.8562 -7.97088,11.83037 -12.25105,18.07988 -4.28018,6.2495 -9.69041,11.77402 -10.30739,17.02623 -0.61697,5.25221 3.55848,10.23041 7.04157,17.18333 3.4831,6.95293 6.27398,15.87976 6.87921,23.74426 0.60524,7.8646 -0.97468,14.6667 -5.36815,22.4133 -4.39347,7.7466 -11.6,16.4374 -16.61687,24.0111 -5.01688,7.5737 -7.84335,14.029 -8.52968,22.0446 -0.68634,8.0155 0.76717,17.5898 3.02318,24.7579 2.25602,7.1682 5.3137,11.9294 4.05791,16.8925 -1.25579,4.9632 -6.82415,10.1288 -7.88498,14.7294 -1.06083,4.6006 2.38519,8.6345 4.26804,12.806 1.88285,4.1716 2.2032,8.4805 0.62163,11.1926 -1.58157,2.7121 -5.06536,3.8284 -6.78779,5.1785 -1.72243,1.3501 -1.68259,2.9325 -0.48255,5.3001 1.20004,2.3675 3.55931,5.5197 2.48811,6.709 -1.07121,1.1894 -5.57353,0.4166 -8.31321,1.3186 -2.73967,0.902 -3.7161,3.4786 -7.60205,8.7142 -3.88596,5.2357 -10.68024,13.1291 -14.89539,19.4206 -4.21515,6.2915 -5.85019,10.9794 -8.21891,14.9859 -2.36873,4.0066 -5.47102,7.3318 -7.51686,11.937 -2.04583,4.6053 -3.03493,10.4894 -4.02392,16.3728"
   id="river_Muehlbach" />
<path
   d="m 345.66831,880.48406 c 1.92892,3.98635 3.85722,7.97142 2.41362,11.97254 -1.44359,4.00112 -6.25838,8.01917 -8.50492,11.73452 -2.24653,3.71535 -1.92455,7.12639 -3.94346,11.27862 -2.0189,4.15222 -6.37838,9.04626 -10.84671,14.09298 -4.46833,5.04671 -9.04523,10.24578 -10.01876,15.27973 -0.97353,5.03396 1.65554,9.9013 2.71241,14.52535 1.05687,4.62405 0.54214,9.00468 4.00275,12.71714 3.4606,3.71245 10.89479,6.75686 17.41665,6.9675 6.52186,0.21064 12.1314,-2.41183 14.90217,-0.66647 2.77077,1.74536 2.7029,7.85712 5.97785,12.40251 3.27496,4.54539 9.89113,7.5243 10.32129,11.12002 0.43015,3.5958 -5.3248,7.8087 -5.83652,14.3931 -0.51172,6.5843 4.21936,15.5381 7.85279,24.5972 3.63344,9.0592 6.16923,18.223 12.61873,23.8967 6.4495,5.6737 16.81117,7.8576 26.58294,10.0894 9.77176,2.2318 18.95246,4.511 23.62135,11.034 4.66889,6.5229 4.82654,17.2881 5.2184,26.9042 0.39186,9.6161 1.01782,18.0818 4.00399,29.2229 2.98617,11.1412 8.33179,24.9563 10.15266,36.9362 1.82088,11.9799 0.11741,22.1235 -0.33624,31.4517 -0.45366,9.3282 0.34235,17.8398 -1.12919,22.985 -1.47154,5.1453 -5.21083,6.9254 -12.57384,7.7358 -7.363,0.8103 -18.34964,0.6506 -28.63253,-0.4049 -10.2829,-1.0556 -19.86102,-3.0072 -26.249,-1.4532 -6.38798,1.5539 -9.5839,6.6133 -12.77967,11.6724"
   id="river_Doersbach" />
<path
   d="m 2222.8657,793.35714 c 5.2247,-2.21573 10.4489,-4.4312 12.0325,-7.1066 1.5837,-2.6754 -0.4736,-5.81177 -4.6645,-15.85852 -4.191,-10.04675 -10.5149,-27.00277 -16.0258,-35.67057 -5.5109,-8.6678 -10.2089,-9.04538 -15.858,-16.507 -5.6492,-7.46162 -12.2477,-22.00599 -15.4312,-31.97635 -3.1835,-9.97035 -2.9499,-15.36075 -1.8463,-19.62746 1.1037,-4.26672 3.0771,-7.40688 1.4038,-9.39556 -1.6732,-1.98867 -6.9952,-2.8262 -8.2282,-9.35449 -1.233,-6.52828 1.6236,-18.74719 1.8078,-27.5494 0.1842,-8.80222 -2.305,-14.18728 -6.9782,-19.20355 -4.6733,-5.01626 -11.5308,-9.66302 -15.5383,-13.42333 -4.0074,-3.76032 -5.1638,-6.63439 -6.3208,-9.50976"
   id="river_Ohe" />
<path
   d="m 2068.1655,1031.3752 c -5.5206,-4.3693 -11.0422,-8.7393 -17.589,-19.7107 -6.5467,-10.9713 -14.1173,-28.54286 -16.8042,-42.29841 -2.687,-13.75556 -0.4894,-23.69296 -1.1628,-32.43855 -0.6733,-8.74559 -4.2182,-16.29865 -2.2369,-20.37305 1.9814,-4.0744 9.4884,-4.66825 13.2656,-6.80775 3.7772,-2.13949 3.8249,-5.8254 7.1777,-12.72129 3.3528,-6.8959 10.0099,-16.99939 11.718,-26.78071 1.7082,-9.78132 -1.5338,-19.23634 -3.2009,-27.42024 -1.667,-8.18391 -1.7578,-15.09295 -3.1774,-22.31063 -1.4197,-7.21768 -4.1691,-14.74604 -3.3022,-22.07073 0.867,-7.32469 5.3506,-14.44475 3.8895,-19.21334 -1.4611,-4.76858 -8.8682,-7.18525 -12.7949,-13.10087 -3.9267,-5.91561 -4.3715,-15.33004 -7.0262,-21.70287 -2.6548,-6.37282 -7.5173,-9.70083 -11.2647,-11.32598 -3.7474,-1.62514 -6.3688,-1.54244 -8.3133,-2.44019 -1.9444,-0.89775 -3.2073,-2.7764 -6.2061,-4.06244 -2.9989,-1.28604 -7.7385,-1.97973 -12.9124,-6.96219 -5.1739,-4.98246 -10.7832,-14.25449 -19.0121,-19.67837 -8.2289,-5.42387 -19.0771,-6.99805 -23.6295,-12.50416 -4.5525,-5.50612 -2.8075,-14.94417 -7.9278,-20.10318 -5.1202,-5.15902 -17.1063,-6.0377 -25.799,-9.55084 -8.6927,-3.51315 -14.0907,-9.66135 -19.0626,-18.77562 -4.972,-9.11427 -9.5167,-21.19364 -15.7303,-26.84431 -6.2135,-5.65067 -14.0953,-4.87069 -16.9963,-9.33336 -2.901,-4.46266 -0.8198,-14.16597 0,-20.74528 0.8216,-6.57932 0.3825,-10.03021 -0.057,-13.48161"
   id="river_Salzboede" />
<path
   d="m 2217.8203,930.71778 c 3.6405,-14.07652 7.2811,-28.15345 6.6482,-38.48697 -0.6329,-10.33352 -5.5403,-16.92304 -4.5341,-26.23828 1.0061,-9.31523 7.925,-21.35127 10.0099,-28.1708 2.085,-6.81952 -0.6684,-8.41604 -3.5649,-10.27148 -2.8965,-1.85544 -5.9359,-3.96968 -5.8041,-11.01763 0.1319,-7.04795 3.4367,-19.03529 2.377,-25.36299 -1.0598,-6.3277 -6.483,-6.9948 -11.6366,-7.63681 -5.1536,-0.64202 -10.0342,-1.25853 -13.7032,0.1 -3.6689,1.35849 -6.1264,4.69276 -8.3291,5.51035 -2.2027,0.81759 -4.152,-0.88188 -6.0851,0.6509 -1.9332,1.53279 -3.8486,6.29802 -7.4481,5.58145 -3.5996,-0.71658 -8.8841,-6.91551 -13.7144,-9.55781 -4.8303,-2.64229 -9.2059,-1.7265 -14.1702,-3.90305 -4.9643,-2.17655 -10.5172,-7.44635 -12.4798,-12.86261 -1.9625,-5.41625 -0.3332,-10.97796 -0.4632,-14.31626 -0.13,-3.3383 -2.0206,-4.45266 -2.2749,-7.3675 -0.2543,-2.91483 1.1291,-7.62974 -0.8377,-12.81696 -1.9669,-5.18722 -7.2845,-10.84617 -9.4821,-17.37497 -2.1975,-6.52879 -1.273,-13.92398 -0.2151,-19.41889 1.0579,-5.49491 2.249,-9.08663 1.1472,-14.24498 -1.1017,-5.15834 -4.4975,-11.88541 -8.4197,-14.55744 -3.9221,-2.67203 -8.3705,-1.28809 -10.0049,-3.46833 -1.6343,-2.18024 -0.4535,-7.92535 -3.6865,-12.28866 -3.2329,-4.36331 -10.8804,-7.34389 -15.6701,-12.5905 -4.7897,-5.24661 -6.72,-12.75923 -10.1922,-18.14888 -3.4721,-5.38966 -8.4867,-8.6553 -13.5025,-11.92172"
   id="river_Allna" />
<path
   d="m 2030.0381,917.47014 c -0.5427,-0.47061 -1.0865,-0.94215 -2.1736,-2.03251 -1.087,-1.09035 -2.7172,-2.79959 -6.8357,-3.96312 -4.1185,-1.16353 -10.7249,-1.78038 -14.6617,-3.28068 -3.9367,-1.5003 -5.2029,-3.88499 -9.1389,-3.17969 -3.936,0.70529 -10.5408,4.50184 -18.9178,6.04022 -8.377,1.53838 -18.526,0.81811 -27.4581,-1.75044 -8.932,-2.56854 -16.6465,-6.98569 -19.7627,-10.27035 -3.1162,-3.28466 -1.6324,-5.43601 -1.8914,-8.99071 -0.259,-3.55471 -2.2613,-8.51325 -6.7954,-12.07187 -4.5341,-3.55861 -11.6,-5.71589 -18.2207,-7.50048 -6.6206,-1.78459 -12.7953,-3.19619 -17.5621,-5.54307 -4.7668,-2.34687 -8.1249,-5.62943 -10.1162,-8.84925 -1.9913,-3.21983 -2.6148,-6.37674 -3.2386,-9.53486"
   id="river_Vers" />
<path
   d="m 1306.8613,926.94372 c 0.4504,-2.7001 0.9009,-5.40103 0.6595,-10.44441 -0.2414,-5.04338 -1.1749,-12.42907 -0.577,-17.39903 0.5979,-4.96995 2.7275,-7.52255 5.1536,-12.55439 2.4262,-5.03184 5.1489,-12.54281 7.0686,-18.77848 1.9196,-6.23566 3.036,-11.19545 3.1112,-14.60323 0.075,-3.40777 -0.8918,-5.26345 -0.6724,-7.14401 0.2193,-1.88056 1.6258,-3.78463 3.6033,-4.60393 1.9775,-0.81931 4.5246,-0.55382 7.6781,-2.9643 3.1534,-2.41047 6.9138,-7.49668 11.4746,-11.8985 4.5607,-4.40183 9.9208,-8.11835 14.5942,-10.466 4.6734,-2.34766 8.6587,-3.32595 11.8226,-4.01259 3.1639,-0.68665 5.5059,-1.0816 7.7096,-2.78953 2.2038,-1.70794 4.27,-4.729 5.0962,-7.12192 0.8262,-2.39293 0.4119,-4.15842 1.8426,-6.19561 1.4307,-2.0372 4.7064,-4.34455 5.6943,-6.28567 0.9879,-1.94113 -0.3127,-3.51711 -1.772,-6.23028 -1.4593,-2.71317 -3.0769,-6.56337 -3.3654,-9.23838 -0.2885,-2.67501 0.7527,-4.17343 -0.1546,-5.92574 -0.9073,-1.75232 -3.7643,-3.75885 -5.5327,-7.73594 -1.7683,-3.97709 -2.4469,-9.92455 -4.945,-14.35511 -2.498,-4.43056 -6.8162,-7.34322 -7.5787,-9.64616 -0.7625,-2.30294 2.0316,-3.99472 5.1244,-5.83234 3.0928,-1.83762 6.4838,-3.82076 8.9827,-6.15371 2.4989,-2.33295 4.1061,-5.01595 3.7268,-7.01272 -0.3793,-1.99678 -2.7464,-3.30751 -3.6649,-4.89087 -0.9186,-1.58336 -0.3871,-3.43924 -2.135,-4.4919 -1.7479,-1.05266 -5.7763,-1.3015 -9.861,-3.79734 -4.0847,-2.49583 -8.2253,-7.23941 -11.6464,-9.45423 -3.4211,-2.21482 -6.1223,-1.89947 -10.4378,-3.90186 -4.3156,-2.00238 -10.2453,-6.32317 -11.1007,-10.55957 -0.8553,-4.2364 3.3648,-8.38713 4.0438,-11.33328 0.6791,-2.94615 -2.1841,-4.68807 -2.8527,-7.22937 -0.6686,-2.54131 0.8589,-5.88143 0.031,-7.93966 -0.8279,-2.05823 -4.0124,-2.83418 -5.8203,-4.4575 -1.8079,-1.62332 -2.2381,-4.09471 -3.6689,-5.62859 -1.4309,-1.53388 -3.8633,-2.12927 -5.4806,-3.75512 -1.6174,-1.62585 -2.4186,-4.28291 -3.908,-6.27691 -1.4893,-1.99399 -3.6674,-3.32432 -5.0687,-5.19013 -1.4012,-1.8658 -2.0245,-4.26733 -4.0432,-7.06723 -2.0187,-2.7999 -5.4333,-5.99758 -8.883,-6.84806 -3.4496,-0.85048 -6.9335,0.6474 -10.0015,0.6107 -3.068,-0.0367 -5.7204,-1.60891 -7.5892,-3.57911 -1.8688,-1.97021 -2.9533,-4.33871 -6.7483,-8.26222 -3.795,-3.92352 -10.3006,-9.40113 -15.8663,-11.01041 -5.5657,-1.60928 -10.19,0.65116 -14.7193,0.83026 -4.5293,0.17909 -8.964,-1.72398 -13.9578,-2.37232 -4.9939,-0.64835 -10.5463,-0.0413 -16.0998,0.56576"
   id="river_Ulmbach" />
<path
   d="m 1249.4447,908.99158 c -2.3284,-0.73026 -4.5806,-1.43659 -6.6216,-2.86829 -2.041,-1.4317 -3.9381,-3.81713 -6.297,-4.3731 -2.359,-0.55596 -7.4725,0.2326 -9.655,-3.136 -2.1826,-3.3686 -2.2822,-10.76408 -1.1711,-14.39711 1.1111,-3.63302 3.4315,-3.50204 4.0625,-5.95872 0.6311,-2.45667 -0.4265,-7.50164 3.4255,-11.76506 3.852,-4.26342 12.6128,-7.74322 16.5398,-10.98285 3.9269,-3.23963 3.0197,-6.24009 4.4535,-9.03222 1.4338,-2.79213 5.2082,-5.37394 7.254,-8.72831 2.0458,-3.35437 2.3619,-7.47955 3.1061,-10.78925 0.7442,-3.3097 1.9162,-5.80097 1.4465,-9.19181 -0.4698,-3.39083 -2.5826,-7.68377 -3.9894,-12.14989 -1.4068,-4.46611 -2.1074,-9.10559 0.057,-13.42616 2.1648,-4.32057 7.1947,-8.32041 8.8823,-14.73406 1.6876,-6.41365 0.032,-15.2417 -2.1127,-20.93455 -2.1452,-5.69285 -4.781,-8.24999 -6.3166,-11.29899 -1.5356,-3.04901 -1.9701,-6.58969 -2.8629,-9.72471 -0.8929,-3.13502 -2.2445,-5.86425 -4.2401,-8.40143 -1.9957,-2.53717 -4.6356,-4.88188 -7.249,-7.66554 -2.6134,-2.78365 -5.1999,-6.00618 -5.9329,-8.44186 -0.7329,-2.43567 0.3886,-4.08348 -1.6213,-6.10275 -2.0099,-2.01928 -7.1524,-4.41018 -8.8959,-6.6173 -1.7435,-2.20713 -0.086,-4.22975 -3.554,-7.78236 -3.4674,-3.5526 -12.0602,-8.63533 -16.2834,-13.45066 -4.2232,-4.81532 -4.0751,-9.363 -1.396,-15.23651 2.6791,-5.8735 7.8891,-13.07154 13.0994,-20.26986"
   id="river_Kallenbach" />
<path
   d="m 870.42047,1001.1572 c 5.38413,-6.47985 10.76823,-12.95967 14.23654,-14.56239 3.4683,-1.60273 5.01984,1.67058 9.15319,4.31452 4.13335,2.64393 10.84737,4.65901 15.93548,4.19294 5.0881,-0.46607 8.55079,-3.4128 12.09368,-2.67285 3.54289,0.73994 7.16476,5.16531 8.72233,5.16654 1.55757,10e-4 1.05141,-4.42169 2.16261,-7.97449 1.1112,-3.55281 3.83975,-6.234 7.2116,-6.53237 3.37185,-0.29838 7.38541,1.78546 10.82121,0.12629 3.4358,-1.65917 6.29481,-7.0609 9.8384,-9.5492 3.54359,-2.4883 7.77016,-2.0626 10.49786,-0.77918 2.7277,1.28342 3.95681,3.42338 5.32723,3.49899 1.37041,0.0756 2.88279,-1.91211 4.60572,-1.81742 1.72293,0.0947 3.65517,2.27086 6.60375,1.88394 2.94857,-0.38691 6.91388,-3.33567 8.5122,-6.40796 1.59831,-3.0723 0.82928,-6.26902 2.61635,-7.34064 1.78708,-1.07163 6.12908,-0.0171 9.49368,-2.2312 3.3646,-2.21406 5.7526,-7.69657 7.3044,-12.31834 1.5518,-4.62177 2.267,-8.38248 3.555,-12.70316 1.2879,-4.32069 3.1484,-9.20049 5.4457,-13.94885 2.2973,-4.74837 5.0311,-9.36447 5.2749,-13.94184 0.2438,-4.57737 -2.0033,-9.11633 -1.7564,-13.47398 0.247,-4.35764 2.9887,-8.53248 2.9524,-13.17438 -0.036,-4.64189 -2.8515,-9.75127 -2.0522,-17.39079 0.7993,-7.63952 5.2137,-17.80753 5.1698,-22.89887 -0.044,-5.09135 -4.5473,-5.10482 -6.924,-7.57936 -2.3768,-2.47454 -2.6257,-7.41084 -4.3471,-11.26215 -1.7215,-3.8513 -4.9164,-6.61691 -4.4033,-9.84397 0.5132,-3.22707 4.7352,-6.91424 7.3817,-12.39809 2.6464,-5.48385 3.7171,-12.76457 4.0097,-18.21245 0.2927,-5.44789 -0.1931,-9.06238 -1.7284,-11.58418 -1.5353,-2.52179 -4.1211,-3.95005 -6.1661,-7.43773 -2.0451,-3.48768 -3.5484,-9.03487 -3.7206,-13.59841 -0.1723,-4.56354 0.987,-8.14222 2.1466,-11.72168"
   id="river_Kerkerbach" />
<path
   d="m 1577.0616,1061.2977 c 4.153,-3.1379 8.3057,-6.2756 14.3553,-15.0596 6.0497,-8.784 13.9962,-23.214 18.5768,-31.5397 4.5806,-8.3257 5.7951,-10.5468 5.3868,-12.2805 -0.4083,-1.7336 -2.4406,-2.97993 -6.3625,-5.32522 -3.9218,-2.34529 -9.7327,-5.78925 -13.9526,-11.6416 -4.2199,-5.85236 -6.8474,-14.11283 -6.5315,-21.41282 0.3159,-7.3 3.5756,-13.6377 1.9077,-17.2421 -1.6679,-3.6044 -8.2645,-4.47474 -11.8753,-8.22825 -3.6109,-3.75352 -4.2345,-10.39068 -6.2912,-13.873 -2.0566,-3.48231 -5.547,-3.8083 -7.8137,-5.96184 -2.2666,-2.15355 -3.3085,-6.13549 -6.3584,-8.46862 -3.0499,-2.33314 -8.1081,-3.01611 -13.3519,-5.74071 -5.2439,-2.7246 -10.6727,-7.49135 -16.0651,-12.26122 -5.3923,-4.76986 -10.7478,-9.54234 -13.6706,-15.50752 -2.9228,-5.96518 -3.4117,-13.1224 -6.9841,-18.10868 -3.5725,-4.98628 -10.2294,-7.80054 -10.6876,-10.50457 -0.4581,-2.70403 5.2832,-5.29685 5.3412,-8.39564 0.058,-3.0988 -5.5678,-6.70409 -4.2889,-11.25676 1.279,-4.55267 9.4637,-10.05123 11.0812,-15.3288 1.6175,-5.27757 -3.3332,-10.33478 -6.7657,-16.21577 -3.4326,-5.88099 -5.3458,-12.58522 -8.4671,-18.65418 -3.1212,-6.06897 -7.4505,-11.50176 -6.8425,-18.59161 0.608,-7.08985 6.1544,-15.83509 6.073,-24.79781 -0.081,-8.96271 -5.7915,-18.14279 -2.9451,-20.84776 2.8463,-2.70497 14.2483,1.06624 20.471,0.39002 6.2228,-0.67621 7.2669,-5.80028 8.803,-12.91452 1.5361,-7.11423 3.564,-16.21794 7.6119,-22.64629 4.048,-6.42836 10.1151,-10.17956 12.1113,-13.41082 1.9963,-3.23125 -0.079,-5.94345 -2.6817,-8.4781 -2.6026,-2.53465 -5.7323,-4.89128 -4.8873,-8.84069 0.8451,-3.94942 5.6659,-9.49049 6.4742,-12.79718 0.8083,-3.30669 -2.3971,-4.37891 -2.1485,-7.17589 0.2486,-2.79698 3.9525,-7.318 6.366,-13.84226 2.4136,-6.52426 3.5366,-15.0517 8.7659,-21.61615 5.2294,-6.56445 14.5639,-11.16397 20.4343,-15.17282 5.8703,-4.00884 8.2763,-7.42689 9.5298,-12.14808 1.2535,-4.72119 1.3544,-10.74585 4.9298,-13.3535 3.5755,-2.60765 10.6239,-1.79709 14.3408,-4.0599 3.7168,-2.26281 4.1027,-7.59961 4.5245,-12.88041 0.4218,-5.28081 0.8794,-10.50517 0.047,-16.73242 -0.8326,-6.22726 -2.9559,-13.4569 0.1408,-20.11399 3.0968,-6.65709 11.4132,-12.73945 14.6219,-19.12775 3.2088,-6.38829 1.3093,-13.08306 -1.1412,-17.56576 -2.4504,-4.48271 -5.4522,-6.7525 -6.8162,-9.63317 -1.364,-2.88066 -1.0887,-6.37185 -6.2036,-11.25873 -5.115,-4.88689 -15.6207,-11.16857 -19.4078,-16.01071 -3.787,-4.84213 -0.8535,-8.24341 -4.0341,-10.60095 -3.1807,-2.35753 -12.4765,-3.67114 -20.7748,-3.95339 -8.2984,-0.28225 -15.598,0.46709 -18.5485,-2.3382 -2.9504,-2.80529 -1.5503,-9.16286 -1.5394,-14.38456 0.011,-5.2217 -1.3679,-9.29932 -1.625,-13.83859 -0.2571,-4.53926 0.6087,-9.53664 -0.1133,-13.60617 -0.7219,-4.06953 -3.0329,-7.21135 -0.5514,-13.71602 2.4815,-6.50467 9.7582,-16.37567 16.3824,-21.24649 6.6242,-4.87083 12.5954,-4.74264 15.325,-9.45363 2.7296,-4.71098 2.2181,-14.26164 4.7345,-21.62337 2.5164,-7.36173 8.0605,-12.53278 13.3155,-17.06561 5.255,-4.53282 10.2204,-8.42702 13.9801,-14.1241 3.7596,-5.69709 6.3134,-13.19725 8.8675,-20.69814"
   id="river_Dill" />
<path
   d="m 345.89425,879.55314 c -1.40209,-2.38463 -2.80484,-4.7704 -3.23863,-7.90135 -0.43379,-3.13096 0.10221,-7.00646 1.99207,-9.85971 1.88986,-2.85325 5.13289,-4.68287 8.29542,-4.54496 3.16254,0.13792 6.24336,2.24239 8.47476,5.39263 2.23139,3.15024 3.61386,7.34545 5.32883,9.85903 1.71497,2.51358 3.76145,3.34591 5.58117,3.2286 1.81973,-0.11731 3.41359,-1.18361 4.44641,-2.78863 1.03282,-1.60502 1.50494,-3.74954 2.67902,-5.48707 1.17408,-1.73754 3.04963,-3.06708 3.62732,-5.77926 0.5777,-2.71217 -0.14251,-6.80792 2.06724,-9.18254 2.20976,-2.37462 7.34857,-3.02658 9.79017,-5.87398 2.44161,-2.84741 2.18653,-7.89109 4.30215,-8.63755 2.11561,-0.74646 6.60062,2.80457 9.77995,2.06593 3.17934,-0.73864 5.05395,-5.76655 7.65439,-5.9715 2.60043,-0.20496 5.92537,4.41247 7.82912,3.4785 1.90375,-0.93397 2.38697,-7.41902 4.97332,-8.64679 2.58635,-1.22778 7.27438,2.80186 10.20454,-0.69425 2.93016,-3.49612 4.10328,-14.51753 7.2059,-17.14474 3.10262,-2.62721 8.13325,3.13979 12.17782,3.69004 4.04457,0.55025 7.10332,-4.11552 9.92583,-8.23094 2.82252,-4.11542 5.40842,-7.67991 9.29287,-9.98558 3.88445,-2.30566 9.06665,-3.35221 12.3333,-5.70152 3.26665,-2.34932 4.61855,-6.00188 8.07827,-7.85778 3.45972,-1.8559 9.02577,-1.91439 13.76729,-3.56826 4.74153,-1.65387 8.65907,-4.90285 9.47555,-8.65166 0.81648,-3.7488 -1.46875,-7.99824 1.01552,-11.90838 2.48427,-3.91015 9.73797,-7.47915 10.47379,-13.04413 0.73582,-5.56498 -5.04676,-13.12656 -6.13752,-20.14488 -1.09076,-7.01831 2.51159,-13.49184 5.49236,-18.54031 2.98076,-5.04848 5.33988,-8.67179 10.65056,-11.2372 5.31068,-2.56541 13.57145,-4.07237 15.34023,-6.97121 1.76878,-2.89884 -2.95487,-7.1903 -1.39346,-9.75473 1.56141,-2.56443 9.40787,-3.40046 12.11629,-8.35757 2.70842,-4.95711 0.27904,-14.03598 -2.48468,-16.12736 -2.76373,-2.09137 -5.86099,2.80591 -9.08424,4.28013 -3.22324,1.47423 -6.57344,-0.47522 -9.43969,1.10069 -2.86626,1.5759 -5.24685,6.6772 -7.21298,7.52979 -1.96612,0.85259 -3.5183,-2.54439 -3.33134,-8.1472 0.18695,-5.60282 2.11374,-13.41031 1.09778,-20.80966 -1.01596,-7.39934 -4.97539,-14.39013 -5.38753,-20.25564 -0.41214,-5.86551 2.7239,-10.60407 5.71814,-13.90982 2.99425,-3.30575 5.84598,-5.17792 3.01503,-7.59277 -2.83094,-2.41484 -11.34519,-5.37266 -14.62838,-12.5389 -3.28319,-7.16624 -1.3336,-18.54047 0.96209,-26.25004 2.29569,-7.70956 4.93724,-11.753 8.15154,-12.04703 3.2143,-0.29403 6.99975,3.16066 10.78187,4.58002 3.78212,1.41935 7.56075,0.80426 11.33301,-1.10957 3.77226,-1.91383 7.5386,-5.12628 11.40059,-5.61917 3.86199,-0.49289 7.81808,1.73309 11.18031,4.27021 3.36222,2.53711 6.13038,5.38471 8.72919,4.3326 2.59882,-1.05212 5.02921,-6.00331 6.92568,-11.72667 1.89648,-5.72336 3.25887,-12.21887 2.71678,-18.93171 -0.5421,-6.71284 -2.98916,-13.6429 -0.66602,-21.31596 2.32313,-7.67307 9.41667,-16.08708 15.12464,-18.56334 5.70796,-2.47627 10.02847,0.98474 14.05194,-1.00256 4.02346,-1.9873 7.7507,-9.4222 11.64613,-12.99117 3.89543,-3.56898 7.95728,-3.27127 10.75842,-4.3203 2.80115,-1.04903 4.34244,-3.44484 10.49034,-3.4947 6.1479,-0.0499 16.90056,2.24626 27.65228,4.54219"
   id="river_Gelbach" />
<path
   d="m 558.84327,688.94144 c 11.6202,-3.95235 23.23957,-7.90442 34.04953,-7.40415 10.80996,0.50026 20.80883,5.45192 28.91282,7.79274 8.104,2.34081 14.31239,2.07113 18.91783,-0.0678 4.60543,-2.13896 7.60844,-6.14714 11.64211,-7.39744 4.03368,-1.25029 9.09622,0.25725 13.55251,2.53545 4.4563,2.27821 8.3059,5.3263 11.34317,5.90325 3.03726,0.57695 5.26282,-1.31635 6.30172,-5.03667 1.0389,-3.72032 0.89109,-9.26832 4.70272,-13.23081 3.81163,-3.9625 11.58164,-6.3378 17.38819,-9.44212 5.80655,-3.10432 9.64956,-6.93747 11.14191,-12.66847 1.49235,-5.731 0.63374,-13.36026 3.25693,-17.81799 2.6232,-4.45774 8.72728,-5.74218 12.86533,-7.91414 4.13805,-2.17196 6.3105,-5.23154 8.46924,-9.47909 2.15874,-4.24754 4.30365,-9.683 5.38778,-13.5259 1.08414,-3.8429 1.10726,-6.09348 -1.39072,-9.04017 -2.49797,-2.9467 -7.51799,-6.58906 -10.9449,-9.3025 -3.42691,-2.71344 -5.26038,-4.49794 -4.5556,-12.65585 0.70479,-8.15792 3.94893,-22.68803 7.98975,-32.08195 4.04082,-9.39392 8.8777,-13.64981 13.71461,-17.90573"
   id="river_Eisenbach" />
<path
   d="m 752.6163,919.2575 c 0.9705,-1.81082 1.94117,-3.62196 4.50665,-4.56308 2.56548,-0.94113 6.72374,-1.01177 8.40732,-3.80085 1.68358,-2.78909 0.89231,-8.29507 1.688,-13.04606 0.79569,-4.75099 3.17865,-8.74271 2.82626,-12.35028 -0.3524,-3.60756 -3.44189,-6.83334 -1.88149,-10.75053 1.56041,-3.91718 7.77076,-8.52477 9.80825,-12.93142 2.0375,-4.40664 -0.0986,-8.61321 3.61646,-12.59999 3.71504,-3.98679 13.28119,-7.75221 18.87597,-12.08686 5.59479,-4.33466 7.21867,-9.23901 10.15981,-10.47883 2.94114,-1.23983 7.19757,1.18499 9.93025,0.85043 2.73268,-0.33456 3.94258,-3.42842 5.14926,-6.50762 1.20667,-3.07919 2.41002,-6.14347 5.58063,-9.55608 3.1706,-3.41261 8.30772,-7.17249 10.05297,-12.16398 1.74525,-4.9915 0.0983,-11.21534 2.4322,-12.55682 2.33393,-1.34147 8.64758,2.20007 10.26689,-0.47511 1.61931,-2.67518 -1.45515,-11.5673 0.55216,-15.32086 2.0073,-3.75356 9.0954,-2.36714 11.42369,-5.73915 2.32828,-3.37201 -0.10274,-11.50302 0.61819,-16.81003 0.72094,-5.30702 4.59383,-7.78807 7.41696,-5.41639 2.82313,2.37167 4.59581,9.59319 7.09112,12.73136 2.49531,3.13817 5.71045,2.19192 6.77286,-1.13506 1.06242,-3.32697 -0.0289,-9.03468 1.87668,-11.51278 1.90554,-2.4781 6.80812,-1.72617 8.79361,-3.82747 1.9855,-2.10129 1.05538,-7.05644 2.93898,-8.95844 1.8836,-1.90199 6.57974,-0.74976 8.42774,-3.33934 1.84799,-2.58958 0.84861,-8.9215 3.39155,-11.52975 2.54295,-2.60824 8.62694,-1.49159 12.28528,-5.35884 3.65833,-3.86726 4.89183,-12.7186 8.34093,-16.53742 3.4491,-3.81882 9.11211,-2.60406 11.75618,-6.8477 2.64408,-4.24364 2.27001,-13.94598 3.91693,-19.85531 1.64692,-5.90932 5.31434,-8.02373 7.01786,-11.30262 1.70352,-3.27889 1.44318,-7.72307 3.77132,-11.67108 2.32814,-3.948 7.24433,-7.39812 7.46848,-10.96813 0.22415,-3.57 -4.24466,-7.2605 -5.54133,-10.90804 -1.29666,-3.64754 0.58025,-7.25115 0.71882,-10.95668 0.13857,-3.70553 -1.46192,-7.51331 -1.87135,-10.61022 -0.40943,-3.0969 0.37298,-5.48191 0.0416,-9.42275 -0.33142,-3.94084 -1.77714,-9.43759 -4.41478,-13.45037 -2.63764,-4.01279 -6.46781,-6.54075 -9.89321,-7.10506 -3.4254,-0.56431 -6.44451,0.83571 -10.09668,0.0702 -3.65217,-0.76554 -7.93429,-3.6965 -12.71262,-5.67959 -4.77833,-1.9831 -10.04937,-3.01588 -13.91803,-5.39586 -3.86867,-2.37998 -6.33632,-6.10958 -10.82694,-8.13384 -4.49061,-2.02425 -11.00453,-2.34269 -16.24573,-1.88376 -5.24119,0.45893 -9.20865,1.69542 -12.85863,2.03806 -3.64999,0.34264 -6.98263,-0.209 -10.21205,0.065 -3.22942,0.27401 -6.35373,1.37361 -9.19032,0.80231 -2.83659,-0.5713 -5.38138,-2.81353 -9.32968,-3.61738 -3.94829,-0.80385 -9.29751,-0.16697 -15.61401,0.63365 -6.3165,0.80062 -13.6023,1.76525 -15.08881,-0.6899 -1.48651,-2.45516 2.82645,-8.32997 3.68461,-14.06474 0.85815,-5.73477 -1.73928,-11.32985 -4.26809,-16.50637 -2.52881,-5.17653 -4.9888,-9.93398 -4.62065,-13.41597 0.36814,-3.482 3.56469,-5.68699 6.65073,-6.59655 3.08605,-0.90956 6.06035,-0.52389 7.18029,-4.03753 1.11995,-3.51363 0.38641,-10.9271 3.17028,-15.56602 2.78388,-4.63892 9.0843,-6.50147 10.57013,-9.67665 1.48583,-3.17518 -1.84329,-7.66392 -2.07411,-10.31121 -0.23082,-2.64729 2.63683,-3.4515 3.49312,-6.23977 0.85629,-2.78828 -0.29849,-7.56161 0.58769,-9.94543 0.88618,-2.38382 3.8125,-2.37665 4.5321,-4.53542 0.7196,-2.15877 -0.76701,-6.48441 0.32773,-10.58242 1.09473,-4.098 4.77114,-7.9667 10.45165,-10.07132 5.68051,-2.10461 13.36346,-2.44483 17.74273,-1.63342 4.37927,0.81141 5.45462,2.77316 7.54935,2.7986 2.09474,0.0255 5.20903,-1.88397 8.76366,-1.57068 3.55463,0.31329 7.54836,2.8484 11.18626,2.99584 3.63791,0.14743 6.92071,-2.0919 10.19315,-3.08572 3.27244,-0.99383 6.5334,-0.74236 9.91389,-2.87213 3.38049,-2.12977 6.88137,-6.64067 10.38241,-11.15179"
   id="river_Elbbach" />
<path
   d="m 917.50206,713.57624 c 2.2411,2.07768 4.48115,4.1544 7.90955,5.27955 3.4284,1.12516 8.04486,1.29966 11.91712,0.59665 3.87227,-0.70301 7.00051,-2.28322 10.40442,-2.1647 3.40391,0.11853 7.08227,1.93498 12.36409,6.1148 5.28182,4.17983 12.16666,10.72215 18.63376,12.87556 6.4671,2.15341 12.51618,-0.0812 19.51192,-6.79837 6.99578,-6.7172 14.93788,-17.91654 24.67038,-23.69452 9.7324,-5.77798 21.2527,-6.13359 27.8346,-9.75945 6.582,-3.62586 8.2258,-10.52206 13.4858,-20.93327 5.26,-10.41121 14.1347,-24.33433 18.6918,-33.20495 4.5571,-8.87062 4.7957,-12.68801 6.7206,-13.95752 1.9248,-1.26951 5.5347,0.009 12.42,-1.5593 6.8853,-1.56871 17.0458,-5.9841 23.8258,-5.75114 6.78,0.23295 10.1783,5.11295 12.4701,5.00782 2.2917,-0.10513 3.4777,-5.19497 9.2084,-7.68661 5.7307,-2.49165 16.0043,-2.38411 23.5181,-3.00747 7.5139,-0.62335 12.2677,-1.97738 15.9055,-4.61624 3.6378,-2.63886 6.1603,-6.56281 7.4699,-14.65647 1.3096,-8.09366 1.4058,-20.35672 0.286,-28.19233 -1.1198,-7.83561 -3.4563,-11.24274 -6.0139,-13.33507 -2.5575,-2.09234 -5.3363,-2.86883 -8.1163,-3.64566"
   id="river_Lasterbach" />
<path
   d="m 1538.3493,658.55681 c -1.5533,-0.07 -3.1075,-0.1401 -4.8685,-0.44501 -1.761,-0.30491 -3.7287,-0.8449 -6.8756,-3.17388 -3.1469,-2.32897 -7.4724,-6.44727 -11.9174,-12.30757 -4.4449,-5.8603 -9.0085,-13.46228 -11.7951,-18.44528 -2.7865,-4.983 -3.7957,-7.34678 -9.8761,-10.73366 -6.0805,-3.38687 -17.2321,-7.79561 -25.2763,-8.47645 -8.0442,-0.68084 -12.9785,2.36689 -17.6986,2.20397 -4.7201,-0.16292 -9.2257,-3.53748 -14.8621,-3.47304 -5.6364,0.0644 -12.402,3.56896 -18.1638,4.79271 -5.7617,1.22375 -10.5194,0.16606 -15.0015,1.23201 -4.4821,1.06595 -8.6867,4.2558 -16.2467,2.69357 -7.56,-1.56222 -18.4755,-7.87723 -26.0672,-11.12453 -7.5918,-3.2473 -11.8589,-3.42591 -14.8012,-5.73629 -2.9423,-2.31037 -4.5589,-6.75335 -8.5925,-10.04816 -4.0335,-3.29481 -10.4841,-5.44021 -15.9286,-5.11003 -5.4444,0.33018 -9.8809,3.13642 -14.6584,2.28025 -4.7775,-0.85617 -9.896,-5.37573 -14.6576,-5.50598 -4.7616,-0.13026 -9.1645,4.12973 -13.5637,3.28152 -4.3991,-0.84822 -8.7946,-6.80561 -13.1072,-10.31146 -4.3125,-3.50585 -8.542,-4.55885 -11.9373,-6.44095 -3.3952,-1.8821 -5.9556,-4.59385 -11.0857,-5.29758 -5.13,-0.70372 -12.8291,0.6017 -17.3001,-1.56002 -4.4709,-2.16171 -5.7128,-7.79156 -6.9269,-13.42642 -1.2141,-5.63486 -2.4004,-11.27403 1.8297,-18.50455 4.2301,-7.23051 13.8761,-16.05024 16.8658,-22.80939 2.9896,-6.75914 -0.6785,-11.45802 -1.2904,-15.44267 -0.6119,-3.98465 1.8334,-7.2537 1.6959,-9.63786 -0.1374,-2.38416 -2.8589,-3.88357 -5.5818,-5.38375"
   id="river_Rehbach" />
<path
   d="m 1577.7823,571.9284 c -0.6964,-0.91188 -1.3935,-1.82478 -2.7547,-2.79382 -1.3612,-0.96905 -3.3865,-1.99352 -4.7489,-5.80619 -1.3624,-3.81266 -2.0605,-10.41355 -4.3094,-16.55242 -2.2489,-6.13888 -6.0488,-11.8151 -14.7671,-14.5873 -8.7183,-2.7722 -22.354,-2.6389 -29.3069,-0.59893 -6.9528,2.03996 -7.2207,5.985 -10.2269,8.58389 -3.0062,2.59889 -8.7508,3.85159 -14.239,4.87207 -5.4883,1.02047 -10.72,1.80871 -14.7975,0.43364 -4.0774,-1.37506 -7.0016,-4.91526 -11.3218,-4.53904 -4.3202,0.37623 -10.0356,4.66961 -14.1534,5.49433 -4.1178,0.82472 -6.6384,-1.82043 -9.8818,-2.18912 -3.2435,-0.36869 -7.2087,1.54034 -12.3894,2.26111 -5.1807,0.72076 -11.5767,0.25287 -15.19,-2.2669 -3.6132,-2.51977 -4.4423,-7.09218 -8.7536,-11.01801 -4.3113,-3.92582 -12.1056,-7.20405 -17.3348,-7.8446 -5.2293,-0.64056 -7.892,1.35723 -10.4668,1.00036 -2.5748,-0.35688 -5.0623,-3.06949 -7.6053,-2.52409 -2.543,0.5454 -5.1401,4.34955 -9.392,4.46201 -4.2518,0.11245 -10.1592,-3.46731 -14.1264,-3.71421 -3.9673,-0.24691 -5.9925,2.83954 -10.8968,0.86417 -4.9043,-1.97537 -12.6884,-9.01319 -17.7615,-12.5971 -5.0731,-3.5839 -7.4348,-3.71285 -10.3416,-5.40322 -2.9068,-1.69037 -6.3583,-4.94287 -8.9502,-5.99992 -2.5919,-1.05706 -4.3231,0.0824 -6.1908,-1.43383 -1.8678,-1.51618 -3.8721,-5.68917 -6.0686,-8.30342 -2.1965,-2.61424 -4.5858,-3.66882 -6.9762,-4.72388"
   id="river_Amdorfbach" />
<path
   d="m 1580.7038,569.04938 c 5.6243,4.27688 11.2474,8.55283 14.0088,12.06263 2.7613,3.50981 2.6619,6.25303 8.1936,11.20021 5.5318,4.94717 16.6928,12.09794 22.2964,17.53648 5.6035,5.43854 5.6501,9.16397 4.5571,11.97711 -1.0931,2.81314 -3.3257,4.71462 -2.3636,7.38698 0.9621,2.67237 5.1177,6.11431 8.1125,10.08153 2.9948,3.96723 4.829,8.4589 8.534,12.27929 3.705,3.82039 9.2797,6.96961 14.6103,8.80967 5.3306,1.84005 10.4167,2.37138 14.1897,3.31613 3.7731,0.94475 6.2326,2.30229 11.4007,3.60973 5.168,1.30744 13.0441,2.56513 19.8522,8.54207 6.8081,5.97695 12.5478,16.67132 21.504,21.0733 8.9562,4.40197 21.1276,2.51229 28.9251,3.90298 7.7974,1.39069 11.2199,6.06036 13.1285,9.41103 1.9086,3.35066 2.3038,5.38205 6.1007,8.81199 3.797,3.42995 10.9943,8.25852 15.6411,16.34407 4.6469,8.08554 6.7439,19.4268 5.6044,27.31124 -1.1394,7.88444 -5.5154,12.31281 -5.1897,17.50333 0.3256,5.19052 5.3517,11.14343 9.1772,17.4462 3.8254,6.30278 6.4491,12.95199 11.0526,16.78216 4.6034,3.83017 11.1824,4.83887 12.2294,9.94516 1.047,5.10629 -3.4377,14.30896 -3.9682,18.74814 -0.5305,4.43917 2.8922,4.11445 1.9167,6.64654 -0.9755,2.5321 -6.3484,7.92068 -7.3764,13.25848 -1.0281,5.3378 2.288,10.6231 2.9561,16.02616 0.668,5.40306 -1.3112,10.92396 -3.2903,16.4444"
   id="river_Aar2" />
<path
   d="m 1609.8104,444.73849 c 3.8041,-4.95481 7.6083,-9.90976 11.7262,-12.82913 4.1179,-2.91938 8.5484,-3.80277 12.6009,-5.86548 4.0524,-2.0627 7.7271,-5.30462 12.4751,-7.89048 4.748,-2.58587 10.5683,-4.51532 16.9742,-4.382 6.4058,0.13332 13.3957,2.32881 19.1245,1.49591 5.7287,-0.83289 10.1967,-4.69365 13.6,-4.93639 3.4033,-0.24274 5.7409,3.13137 13.0869,1.5056 7.3459,-1.62577 19.7001,-8.2499 27.0324,-9.5507 7.3323,-1.3008 9.6418,2.72067 13.3088,3.24517 3.6669,0.52449 8.6918,-2.44651 13.6663,-4.80574 4.9746,-2.35923 9.8972,-4.10615 12.1419,-5.85375 2.2447,-1.7476 1.8107,-3.49645 4.4077,-4.60971 2.597,-1.11326 8.2241,-1.58942 13.9371,-6.32674 5.7131,-4.73732 11.5121,-13.73524 17.4212,-24.13248 5.909,-10.39723 11.9274,-22.19288 17.3976,-29.40465 5.4702,-7.21177 10.3918,-9.83929 10.0356,-12.65742 -0.3562,-2.81814 -5.9909,-5.8275 -10.2842,-5.74899 -4.2932,0.0785 -7.2433,3.24548 -11.2946,-2.27082 -4.0514,-5.5163 -9.2041,-19.71621 -12.9218,-27.00853 -3.7178,-7.29232 -6.0007,-7.67484 -8.2072,-11.00664 -2.2065,-3.33181 -4.3355,-9.61349 -4.9844,-15.04896 -0.6489,-5.43547 0.1828,-10.02364 -2.0373,-14.75547 -2.22,-4.73183 -7.4928,-9.60693 -8.049,-13.94898 -0.5563,-4.34206 3.6051,-8.14943 13.4252,-9.43869 9.8202,-1.28926 25.2967,-0.0604 33.9139,-1.08467 8.6173,-1.02431 10.3752,-4.30194 10.3562,-8.03109 -0.019,-3.72915 -1.8156,-7.91017 -1.3169,-10.47346 0.4987,-2.56329 3.2926,-3.50711 1.1122,-6.67279 -2.1804,-3.16569 -9.3353,-8.55385 -15.5451,-12.52292 -6.2098,-3.96907 -11.4737,-6.51826 -15.9001,-7.32207 -4.4264,-0.80382 -8.0142,0.13866 -11.6028,1.08135"
   id="river_Dietzhoehle" />
</g>
<path
   style="display:inline;fill:none;stroke:#00a9ff;stroke-width:10;stroke-linecap:round;stroke-linejoin:round;stroke-dasharray:none;stroke-opacity:1"
   d="m 1824.4595,100.60579 c 20.3554,2.6885 40.7094,5.37682 54.6584,4.23636 13.9489,-1.14046 21.4936,-6.10927 27.1913,-11.906438 5.6978,-5.797168 9.5488,-12.422726 14.36,-17.41194 4.8112,-4.989215 10.5815,-8.341019 17.305,-11.044612 6.7236,-2.703592 14.3993,-4.758676 20.9784,-4.961405 6.5791,-0.202729 12.0605,1.44624 15.1131,3.889138 3.0527,2.442898 3.6771,5.678623 6.4711,10.523751 2.7939,4.845129 7.7565,11.299585 13.8229,14.127855 6.0664,2.828271 13.236,2.031525 16.4282,3.54687 3.1922,1.515346 2.4078,5.341801 4.7313,7.244434 2.3236,1.902637 7.7537,1.882237 10.9866,0.394806 3.2329,-1.487428 4.2696,-4.442348 6.5741,-6.678251 2.3044,-2.235902 5.8757,-3.751852 9.0905,-4.331351 3.2148,-0.5795 6.0722,-0.222881 7.7314,1.282092 1.6592,1.504973 2.1212,4.157284 3.4197,6.127024 1.2985,1.969741 3.4323,3.257298 5.882,6.373477 2.4496,3.11617 5.2153,8.05996 8.2682,10.23076 3.053,2.17079 6.3923,1.56948 8.3087,3.18619 1.9165,1.61671 2.4105,5.44997 2.4151,9.56367 0,4.11371 -0.4802,8.5079 -1.813,11.79146 -1.3328,3.28356 -3.5139,5.45738 -4.7821,7.77782 -1.2683,2.32045 -1.6236,4.78647 -0.8595,10.33911 0.7641,5.55265 2.6471,14.19101 3.4593,23.14965 0.8121,8.95863 0.5537,18.23684 1.6523,23.52715 1.0985,5.2903 3.5528,6.59298 7.2952,7.55644 3.7424,0.96347 8.773,1.58826 13.8448,2.79583 5.0718,1.20756 10.1849,2.99764 15.6218,5.29567 5.4368,2.29803 11.1978,5.10397 13.8439,7.57226 2.6461,2.4683 2.1786,4.59872 1.0475,8.25686 -1.131,3.65813 -2.9255,8.84389 -3.6361,12.85157 -0.7106,4.00769 -0.3376,6.83642 0.2599,9.51426 0.5976,2.67785 1.4195,5.20455 3.6745,7.77911 2.255,2.57456 5.942,5.19727 9.4061,7.23778 3.4641,2.0405 6.7048,3.49893 10.609,4.81376 3.9041,1.31483 8.4713,2.4862 13.986,2.58321 5.5147,0.097 11.977,-0.87984 16.7878,-1.03242 4.8109,-0.15258 7.9694,0.51872 10.3387,2.20649 2.3693,1.68777 3.9498,4.39091 6.2225,7.55269 2.2728,3.16179 5.2375,6.78211 7.8164,10.05931 2.5788,3.27719 4.7717,6.21092 5.6869,10.03362 0.9153,3.82269 0.5538,8.53424 -1.0924,13.66845 -1.6461,5.1342 -4.5767,10.69148 -6.1885,15.27461 -1.6117,4.58314 -1.9046,8.19123 0.019,10.58224 1.9239,2.39101 6.0631,3.56548 8.7746,5.35738 2.7116,1.7919 3.9958,4.20021 4.3908,6.95348 0.3951,2.75328 -0.098,5.85175 1.4825,8.08033 1.5807,2.22858 5.2341,3.58761 5.0786,6.44812 -0.1555,2.86051 -4.1183,7.22258 -6.4762,10.69807 -2.3579,3.4755 -3.1103,6.06323 -1.9627,8.11153 1.1476,2.0483 4.1938,3.55713 5.8235,6.15274 1.6297,2.59562 1.8441,6.27741 1.2822,9.61525 -0.5619,3.33784 -1.8999,6.33225 -4.1949,8.95122 -2.295,2.61897 -5.5474,4.86302 -8.2193,6.4974 -2.6718,1.63438 -4.763,2.659 -7.598,5.2259 -2.835,2.56689 -6.413,6.67553 -7.2329,12.40297 -0.82,5.72745 1.1177,13.07272 0,19.99921 -1.1129,6.92649 -5.2757,13.4352 -7.9068,19.82899 -2.6311,6.3938 -3.7304,12.67156 -4.1938,17.16937 -0.4635,4.49782 -0.2912,7.21517 1.0817,9.81944 1.3729,2.60427 3.9453,5.09534 6.5641,6.6958 2.6189,1.60046 5.2837,2.31084 8.7286,2.3091 3.4449,-0.002 7.67,-0.71508 12.9647,0.0856 5.2946,0.80071 11.6579,3.11479 16.3575,3.65434 4.6996,0.53955 7.7358,-0.69472 10.6513,-1.72918 2.9156,-1.03447 5.71,-1.86901 9.5648,-1.07558 3.8547,0.79343 8.7687,3.21403 9.5973,9.83544 0.8286,6.62141 -2.4267,17.44331 -0.7237,20.83923 1.703,3.39591 8.3638,-0.63371 11.5103,0.39188 3.1465,1.02558 2.7791,7.10522 3.0223,11.47029 0.2432,4.36507 1.0965,7.015 3.8801,11.82585 2.7836,4.81086 7.4968,11.78227 9.8479,16.47084 2.3511,4.68857 2.3407,7.09411 1.7554,10.55957 -0.5854,3.46545 -1.7456,7.99101 0.386,10.05673 2.1316,2.06572 7.5535,1.67244 10.7964,7.82401 3.243,6.15156 4.3073,18.84579 7.1473,26.08494 2.8399,7.23914 7.4537,9.02268 12.6257,10.3562 5.172,1.33353 10.9018,2.21719 15.9713,3.54103 5.0694,1.32385 9.4783,3.08749 13.3893,5.2739 3.911,2.18641 7.3241,4.7951 10.7194,3.56475 3.3954,-1.23035 6.774,-6.29897 11.6258,-7.85786 4.8517,-1.55889 11.1745,0.39193 16.7041,2.87562 5.5296,2.4837 10.2657,5.49975 15.7275,9.17713 5.4619,3.67739 11.6492,8.01587 18.5855,10.42452 6.9364,2.40866 14.6213,2.88814 20.2564,5.83137 5.6352,2.94323 9.22,8.34833 13.3966,10.97255 4.1766,2.62421 8.944,2.46819 12.2414,4.10426 3.2975,1.63607 5.125,5.06272 8.236,8.2891 3.1109,3.22639 7.5044,6.25261 10.7977,8.61798 3.2934,2.36537 5.4866,4.06972 6.8781,6.70728 1.3914,2.63755 1.9819,6.20782 -0.4383,10.50006 -2.4202,4.29224 -7.8509,9.30747 -10.6762,13.42199 -2.8253,4.11453 -3.0448,7.32685 -3.6579,9.59274 -0.6131,2.26589 -1.6198,3.58588 -5.2684,5.65603 -3.6486,2.07014 -9.9396,4.89076 -14.4835,5.90094 -4.5439,1.01018 -7.3413,0.20931 -10.18,-0.85248 -2.8387,-1.06178 -5.7186,-2.38466 -8.1119,-4.15441 -2.3932,-1.76975 -4.2993,-3.98665 -4.0028,-8.82271 0.2964,-4.83607 2.7965,-12.29039 2.7692,-17.56225 -0.027,-5.27186 -2.5831,-8.36165 -6.0308,-9.1812 -3.4477,-0.81956 -7.7865,0.63244 -11.262,2.56491 -3.4755,1.93247 -6.0867,4.345 -7.8189,6.45608 -1.7323,2.11109 -2.5853,3.92016 -2.8651,7.73616 -0.2798,3.81599 0.014,9.63787 -1.5609,13.17587 -1.5745,3.538 -5.017,4.7931 -6.9145,8.06512 -1.8974,3.27201 -2.2491,8.55931 -4.7771,12.60964 -2.5279,4.05034 -7.2324,6.8645 -9.8307,9.11665 -2.5983,2.25215 -3.0898,3.94121 -2.2074,8.12005 0.8823,4.17885 3.1378,10.84667 3.8335,16.70877 0.6958,5.86211 -0.1676,10.91841 -0.9503,14.45679 -0.7826,3.53837 -1.4843,5.55888 -3.5736,5.42657 -2.0893,-0.13231 -5.5673,-2.41759 -9.4995,-0.60627 -3.9321,1.81133 -8.3152,7.71826 -12.6582,9.82892 -4.3431,2.11067 -8.6422,0.42271 -13.0977,1.07063 -4.4555,0.64792 -9.0634,3.63296 -13.5865,3.59936 -4.5232,-0.0336 -8.964,-3.08716 -13.0284,-2.14972 -4.0645,0.93744 -7.7512,5.86601 -12.4052,9.86551 -4.654,3.9995 -10.2755,7.06998 -11.8897,12.83245 -1.6141,5.76247 0.7792,14.215 -1.2078,18.2391 -1.987,4.0241 -8.3551,3.62084 -12.5337,6.86406 -4.1786,3.24322 -6.1658,10.13179 -11.1027,12.48192 -4.9368,2.35012 -12.8242,0.16184 -18.5186,2.18668 -5.6944,2.02484 -9.1938,8.26261 -12.5062,11.83263 -3.3125,3.57003 -6.4385,4.47253 -10.3637,5.55622 -3.9252,1.0837 -8.6495,2.34852 -12.4956,4.16802 -3.8461,1.8195 -6.8131,4.19347 -9.461,6.84875 -2.6479,2.65529 -4.9759,5.59118 -8.4406,6.2896 -3.4647,0.69843 -8.0671,-0.84103 -10.4371,3.30782 -2.3701,4.14884 -2.5063,13.98505 -4.8112,14.32584 -2.3049,0.34079 -6.7787,-8.81336 -10.769,-12.58483 -3.9902,-3.77146 -7.4946,-2.15732 -10.9929,-0.30507 -3.4984,1.85224 -6.9893,3.94198 -11.0812,5.22149 -4.0919,1.27952 -8.7861,1.74884 -12.7712,7.5297 -3.9852,5.78085 -7.2601,16.87195 -12.3606,25.17853 -5.1005,8.30658 -12.0261,13.82822 -15.3955,18.0732 -3.3694,4.245 -3.1819,7.2112 -5.5595,8.9304 -2.3776,1.7193 -7.3211,2.1926 -11.3228,3.4886 -4.0017,1.2959 -7.0606,3.4143 -10.294,3.5907 -3.2333,0.1764 -6.642,-1.5902 -9.5567,-3.4759 -2.9148,-1.8856 -5.3353,-3.8904 -5.6409,-1.8898 -0.3057,2.0006 1.5045,8.0063 0.4733,13.168 -1.0312,5.1616 -4.9033,9.48 -7.8815,16.4524 -2.9782,6.9724 -5.0621,16.5972 -9.6635,23.1252 -4.6014,6.5281 -11.7203,9.9596 -17.6721,11.4534 -5.9518,1.4938 -10.7359,1.0492 -14.3164,-0.6174 -3.5804,-1.6667 -5.9563,-4.5561 -7.1611,-8.7248 -1.2049,-4.1686 -1.2375,-9.6156 -2.6262,-11.269 -1.3886,-1.6535 -4.1333,0.4883 -8.3354,4.3179 -4.202,3.8297 -9.8612,9.3471 -11.33,13.7781 -1.4689,4.431 1.2514,7.7744 3.0748,10.9059 1.8234,3.1316 2.7501,6.0508 0.2384,6.1062 -2.5118,0.055 -8.4626,-2.7524 -11.9375,-2.2357 -3.475,0.5167 -4.4723,4.3576 -5.3986,8.7503 -0.9263,4.3928 -1.7814,9.3363 -5.1337,12.982 -3.3523,3.6456 -9.2015,5.9934 -14.9368,9.3199 -5.7352,3.3265 -11.3551,7.6312 -17.5045,10.2981 -6.1493,2.6669 -12.829,3.6962 -18.9803,1.7619 -6.1513,-1.9344 -11.7741,-6.8334 -13.2225,-5.6349 -1.4483,1.1985 1.2786,8.494 -0.2804,13.7687 -1.5591,5.2748 -7.4038,8.5296 -12.5913,13.1712 -5.1874,4.6416 -9.7166,10.6691 -16.6595,14.3699 -6.9429,3.7007 -16.2998,5.0746 -24.9448,7.8742 -8.645,2.7996 -16.5765,7.0245 -21.9813,7.5419 -5.4048,0.5174 -8.2831,-2.6742 -13.5132,-3.4712 -5.2301,-0.7971 -12.8112,0.8017 -16.1178,-1.0794 -3.3067,-1.8811 -2.3378,-7.2434 -4.5164,-8.7363 -2.1786,-1.493 -7.5053,0.8844 -10.7253,-1.0922 -3.2199,-1.9766 -4.3326,-8.3084 -6.5485,-12.8264 -2.2158,-4.518 -5.5353,-7.2213 -9.3778,-8.8718 -3.8426,-1.6504 -8.2077,-2.2469 -11.5982,-2.3152 -3.3906,-0.068 -5.8057,0.3916 -10.5352,-2.2121 -4.7294,-2.6036 -11.7729,-8.2718 -12.0038,-12.3713 -0.231,-4.0995 6.3493,-6.6282 7.8976,-9.1601 1.5482,-2.5319 -1.9371,-5.0644 -5.0197,-6.1662 -3.0825,-1.1018 -5.7583,-0.7698 -8.8037,-2.1055 -3.0453,-1.3356 -6.463,-4.3414 -9.0654,-8.233 -2.6024,-3.8916 -4.3899,-8.67 -11.0058,-12.9517 -6.6159,-4.2818 -18.0603,-8.0656 -23.4203,-13.8891 -5.3601,-5.8236 -4.6337,-13.6867 -6.0065,-18.033 -1.3727,-4.3462 -4.8458,-5.1742 -7.2695,-7.5431 -2.4237,-2.3689 -3.7971,-6.2797 -6.1699,-5.7052 -2.3728,0.5744 -5.7442,5.6353 -8.3233,5.8727 -2.579,0.2374 -4.3655,-4.3485 -7.1533,-6.3539 -2.7877,-2.0055 -6.5732,-1.4271 -10.678,-2.0769 -4.1049,-0.6498 -8.5261,-2.5284 -8.5157,-1.2232 0.01,1.3052 4.4535,5.7951 3.7942,8.5135 -0.6593,2.7185 -6.4199,3.6674 -16.7454,5.4986 -10.3255,1.8312 -25.2146,4.5445 -34.2912,5.1079 -9.0766,0.5634 -12.3399,-1.024 -13.8063,-7.1106 -1.4664,-6.0865 -1.1345,-16.6707 -4.5689,-23.8462 -3.4345,-7.1754 -10.6332,-10.9367 -17.1071,-12.8968 -6.474,-1.9601 -12.218,-2.1163 -15.0037,-4.5018 -2.7857,-2.3855 -2.6131,-7.0031 -4.7374,-8.9007 -2.1244,-1.8976 -6.5463,-1.0748 -9.9174,0.571 -3.3712,1.6458 -5.6901,4.1141 -6.8462,7.1528 -1.1561,3.0387 -1.1495,6.6465 -4.3402,6.4859 -3.1908,-0.1605 -9.5782,-4.0882 -13.1525,-8.0616 -3.5743,-3.9733 -4.3302,-7.9873 -6.4089,-11.2793 -2.0788,-3.29195 -5.48,-5.85783 -7.1628,-10.29126 -1.6827,-4.43343 -1.6465,-10.73781 -5.1569,-13.9373 -3.5104,-3.1995 -10.5682,-3.29431 -17.474,-4.14074 -6.9058,-0.84642 -13.6589,-2.44464 -21.3639,-1.9891 -7.705,0.45554 -16.3603,2.96524 -21.5329,0.90056 -5.1726,-2.06468 -6.8613,-8.70508 -10.2961,-12.18848 -3.4347,-3.4834 -8.615,-3.8082 -10.9164,-6.11703 -2.3013,-2.30882 -1.7205,-6.5998 -3.0538,-11.15759 -1.3333,-4.55779 -4.5814,-9.37936 -3.0391,-14.32536 1.5422,-4.94599 7.8771,-10.0176 8.8553,-14.10785 0.9782,-4.09024 -3.4001,-7.20043 -7.9289,-9.82626 -4.5288,-2.62583 -9.2073,-4.76653 -13.7859,-4.03687 -4.5786,0.72966 -9.0538,4.32957 -13.6952,5.51839 -4.6414,1.18881 -9.448,-0.035 -13.8995,2.86511 -4.4514,2.90011 -8.5472,9.92533 -12.8789,11.10656 -4.3317,1.18123 -8.9014,-3.48221 -11.8747,-3.31676 -2.9734,0.16546 -4.3503,5.15961 -6.388,8.49341 -2.0377,3.3338 -4.7354,5.00672 -8.7039,4.3202 -3.9686,-0.68652 -9.2062,-3.73312 -12.1366,-8.30397 -2.9304,-4.57085 -3.5515,-10.66546 -6.1688,-12.37264 -2.6174,-1.70718 -7.2308,0.97449 -12.1293,-1.40897 -4.8985,-2.38346 -10.0819,-9.83318 -16.1114,-11.20689 -6.0295,-1.37372 -12.9036,3.32999 -14.1129,7.32061 -1.2093,3.99062 3.2454,7.26662 5.2831,10.0513 2.0376,2.78468 1.6594,5.07793 -1.1883,6.90948 -2.8477,1.83155 -8.1654,3.20228 -14.4652,3.02408 -6.2998,-0.1782 -13.5815,-1.90586 -19.9427,-1.33253 -6.3613,0.57333 -11.8009,3.44802 -15.303,9.482 -3.5021,6.03398 -5.0657,15.22545 -9.0511,21.12692 -3.9853,5.90147 -10.3927,8.51336 -14.5217,9.09671 -4.129,0.58334 -5.9799,-0.86305 -7.5892,1.75207 -1.6093,2.61513 -2.9757,9.29156 -4.8643,13.18303 -1.8886,3.89147 -4.2998,4.99879 -7.9191,4.86042 -3.6193,-0.13836 -8.447,-1.52301 -13.2349,-7.66244 -4.7879,-6.13943 -9.5347,-17.03376 -15.2436,-21.42277 -5.7089,-4.389 -12.3794,-2.27058 -13.3394,3.13577 -0.96,5.40636 3.7905,14.09835 2.2469,17.90762 -1.5437,3.80928 -9.3819,2.73631 -12.5233,4.06487 -3.1413,1.32857 -1.5848,5.05741 1.5601,7.97132 3.1448,2.9139 7.8769,5.01328 9.211,8.17174 1.3341,3.15846 -0.7285,7.37564 -4.2202,9.74794 -3.4917,2.3723 -8.4133,2.8998 -10.0738,6.4972 -1.6604,3.5974 -0.059,10.2626 -4.259,15.4502 -4.2001,5.1877 -14.2015,8.8986 -21.6573,17.6519 -7.4557,8.7534 -12.3642,22.5473 -19.3782,31.0267 -7.014,8.4795 -16.1333,11.6442 -20.579,15.8909 -4.4458,4.2467 -4.2165,9.5761 -3.0677,12.9243 1.1488,3.3481 3.2171,4.7209 3.4194,6.6574 0.2023,1.9366 -1.4589,4.4334 -4.4537,6.8003 -2.9948,2.367 -7.3178,4.5991 -14.4063,3.596 -7.0885,-1.0032 -16.9407,-5.2433 -20.35315,-9.9918 -3.41246,-4.7486 -0.38326,-10.0052 0.43244,-14.801 0.81571,-4.7957 -0.58264,-9.1313 -5.18963,-8.7718 -4.607,0.3596 -12.42202,5.4155 -16.4608,5.4415 -4.03878,0.026 -4.30087,-4.9794 -4.17064,-10.7539 0.13023,-5.7744 0.65287,-12.3172 -3.0687,-16.3431 -3.72158,-4.026 -11.68819,-5.5338 -14.73187,-9.0892 -3.04368,-3.5554 -1.16254,-9.1585 -1.87899,-12.6184 -0.71645,-3.4598 -4.03182,-4.7759 -7.60248,-4.5047 -3.57067,0.2712 -7.3952,2.1304 -9.1079,5.9761 -1.7127,3.8458 -1.31286,9.676 -5.58739,15.0611 -4.27454,5.3851 -13.2233,10.3258 -18.15003,10.047 -4.92673,-0.2788 -5.83078,-5.7785 -5.90693,-16.9525 -0.0761,-11.1741 0.67586,-28.0211 -1.07991,-37.3597 -1.75578,-9.3386 -6.02042,-11.1671 -12.80431,-11.2556 -6.78389,-0.089 -16.08572,1.5639 -23.7211,-1.4429 -7.63538,-3.00686 -13.60322,-10.67378 -11.56309,-19.34788 2.04013,-8.6741 12.08897,-18.35303 14.91749,-24.54739 2.82852,-6.19436 -1.56481,-8.90435 -6.07899,-14.19205 -4.51418,-5.28771 -9.14831,-13.15316 -15.77977,-15.77232 -6.63146,-2.61916 -15.25954,0.01 -21.18161,7.15457 -5.92206,7.1449 -9.13658,18.80412 -15.90275,26.1736 -6.76616,7.36947 -17.0841,10.44932 -28.37749,7.83174 -11.29339,-2.61758 -23.56141,-10.9333 -28.63672,-20.71671 -5.07531,-9.78341 -2.95593,-21.03321 -4.60702,-27.82903 -1.6511,-6.79582 -7.0739,-9.13629 -12.75054,-9.62293 -5.67663,-0.48664 -11.60603,0.88136 -15.93726,0.87197 -4.33122,-0.009 -7.0645,-1.39706 -10.42443,0.10563 -3.35993,1.50269 -7.34494,5.89594 -10.56048,5.69813 -3.21553,-0.19781 -5.66184,-4.98796 -10.38614,-8.02373 -4.7243,-3.03578 -11.72668,-4.3158 -16.7612,-7.69545 -5.03452,-3.37966 -8.10013,-8.85964 -11.33792,-10.39619 -3.23778,-1.53655 -6.64687,0.8719 -8.30754,3.90985 -1.66067,3.03795 -1.57255,6.70377 -3.13978,11.04663 -1.56724,4.34286 -4.78945,9.36305 -8.09115,13.68551 -3.3017,4.32246 -6.6826,7.94688 -9.92305,8.42698 -3.24045,0.4801 -6.34121,-2.18513 -6.25198,-5.08823 0.0892,-2.9031 3.36957,-6.04269 0.2295,-9.0155 -3.14007,-2.9728 -12.70143,-5.77885 -17.31147,-1.42199 -4.61003,4.35685 -4.26693,15.87535 -7.41983,22.28741 -3.1529,6.41206 -9.80221,7.71818 -12.79101,2.57883 -2.98881,-5.13936 -2.31585,-16.72473 -4.46544,-19.58572 -2.14958,-2.86099 -7.12141,3.00366 -11.86384,3.43732 -4.74242,0.43367 -9.25594,-4.56476 -12.30773,-4.60717 -3.05179,-0.0424 -4.64024,4.87164 -5.83796,9.84151 -1.19772,4.96986 -2.00463,9.9947 -6.67622,11.54787 -4.67159,1.55316 -13.2087,-0.36493 -16.23293,-6.53229 -3.02423,-6.16737 -0.53378,-16.58376 0.0655,-23.45577 0.59929,-6.87202 -0.69334,-10.19937 -2.03329,-13.91125 -1.33994,-3.71189 -2.72697,-7.80789 -5.45094,-10.08806 -2.72396,-2.28016 -6.78528,-2.74308 -10.25584,-0.9136 -3.47055,1.82949 -6.34858,5.95108 -10.96414,6.42413 -4.61557,0.47305 -10.96956,-2.70291 -15.01651,-2.27499 -4.04695,0.42792 -5.78484,4.45979 -4.37597,9.95779 1.40887,5.498 5.96339,12.46089 7.34182,18.05303 1.37843,5.59215 -0.41817,9.81391 3.56515,11.63578 3.98333,1.82188 13.74489,1.24424 18.01897,3.10096 4.27408,1.85672 3.0614,6.1468 -0.24131,9.31139 -3.30271,3.16458 -8.69592,5.20425 -14.24716,5.24548 -5.55123,0.0412 -11.26085,-1.91662 -14.63955,-5.31469 -3.37869,-3.39807 -4.42527,-8.23687 -7.80315,-12.40168 -3.37788,-4.16481 -9.08764,-7.65467 -13.66863,-11.49154 -4.58099,-3.83687 -8.03236,-8.02069 -14.03807,-11.18015 -6.00571,-3.15947 -14.56533,-5.29334 -18.86653,0.16209 -4.30121,5.45543 -4.34222,18.49873 -6.39014,26.00438 -2.04793,7.50566 -6.10306,9.47406 -9.86135,8.6939 -3.7583,-0.78016 -7.22017,-4.31008 -7.59448,-9.60645 -0.37431,-5.29638 2.34013,-12.35822 -0.12944,-18.27449 -2.46956,-5.91628 -10.12429,-10.68648 -12.82469,-15.21342 -2.7004,-4.52693 -0.44466,-8.80968 -1.62578,-12.16987 -1.18112,-3.36018 -5.80044,-5.79768 -9.20472,-4.42251 -3.40427,1.37516 -5.59157,6.56299 -9.062,7.48072 -3.47043,0.91774 -8.22503,-2.43508 -11.53528,-6.30779 -3.31025,-3.8727 -5.17508,-8.26527 -8.73665,-7.29074 -3.56157,0.97452 -8.81884,7.31723 -13.93922,9.81196 -5.12038,2.49472 -10.10465,1.14095 -11.51977,-2.57475 -1.41511,-3.71571 0.74058,-9.79317 -0.58632,-12.82547 -1.32691,-3.03231 -6.13767,-3.01851 -10.82333,0.34381 -4.68565,3.36232 -9.24463,10.07254 -11.43329,7.35941 -2.18866,-2.71313 -2.00688,-14.85008 -4.40633,-22.57592 -2.39945,-7.72584 -7.3811,-11.03942 -14.18692,-13.41893 -6.80581,-2.37951 -15.43499,-3.82404 -17.40112,-6.55937 -1.96614,-2.73532 2.73213,-6.76084 3.99046,-13.00468 1.25833,-6.24385 -0.92364,-14.70665 -7.42639,-19.69076 -6.50274,-4.9841 -17.32637,-6.48783 -21.3421,-10.35957 -4.01573,-3.87174 -1.22168,-10.11138 2.63748,-15.68087 3.85917,-5.56949 8.78276,-10.46767 9.03524,-15.53639 0.25248,-5.06873 -4.16686,-10.30816 -10.5702,-11.78122 -6.40335,-1.47306 -14.78765,0.82213 -23.20046,1.79229 -8.41281,0.97017 -16.8524,0.61464 -19.18088,-2.23013 -2.32849,-2.84476 1.45539,-8.17924 5.37672,-13.33288 3.92133,-5.15365 7.97982,-10.12608 5.16445,-16.77626 -2.81536,-6.65019 -12.50549,-14.97819 -17.10537,-22.41929 -4.59988,-7.4411 -4.10775,-13.99438 -8.16834,-19.04755 -4.06058,-5.05317 -12.67476,-8.60517 -15.79554,-13.21627 -3.12078,-4.61109 -0.74627,-10.28075 -2.21842,-12.92035 -1.47215,-2.63961 -6.79201,-2.24826 -10.6438,-0.64371 -3.85179,1.60455 -6.234,4.42193 -8.75811,3.932 -2.52412,-0.48993 -5.19081,-4.28825 -11.56244,-2.01333 -6.37162,2.27493 -16.44666,10.62413 -23.55053,11.25253 -7.10387,0.6284 -11.23634,-6.46543 -19.116064,-3.94649 -7.879727,2.51894 -19.50501,14.65161 -26.868589,17.63854 -7.363579,2.98693 -10.465233,-3.17347 -8.304662,-9.05403 2.160571,-5.88055 9.583601,-11.47912 8.150188,-16.58431 -1.433413,-5.1052 -11.7248,-9.71738 -17.503579,-10.88657 -5.778779,-1.16919 -7.044032,1.10464 -9.939657,2.76289 -2.895625,1.65826 -7.421855,2.70121 -13.484041,-0.47913 C 22.59597,637.8709 17.568284,632.77561 9.9700311,625.36998"
   id="river_Lahn" />
<path
   id="section_0"
   style="display:inline;fill:none;stroke:#00a9ff;stroke-width:10;stroke-linecap:round;stroke-linejoin:round;stroke-dasharray:none;stroke-opacity:1"
   d="m 2173.9102,947.56445 c 3.9903,3.77147 8.4646,12.92673 10.7695,12.58594 2.3049,-0.34079 2.4404,-10.17734 4.8105,-14.32617 2.37,-4.14885 6.9728,-2.61017 10.4375,-3.3086 3.4647,-0.69841 5.7916,-3.63377 8.4395,-6.28906 2.6479,-2.65527 5.6148,-5.02816 9.4609,-6.84765 3.8461,-1.8195 8.5709,-3.08427 12.4961,-4.16797 3.9252,-1.08369 7.0508,-1.98662 10.3633,-5.55664 3.3124,-3.57002 6.8115,-9.80915 12.5059,-11.83399 5.6944,-2.02484 13.5827,0.16457 18.5195,-2.18554 4.9369,-2.35013 6.9249,-9.23921 11.1035,-12.48243 4.1786,-3.24321 10.5462,-2.83918 12.5332,-6.86328 1.987,-4.02409 -0.4071,-12.47777 1.207,-18.24023 1.6142,-5.76247 7.2367,-8.83254 11.8907,-12.83203 4.654,-3.9995 8.3398,-8.9278 12.4043,-9.86524 4.0644,-0.93744 8.5061,2.11679 13.0293,2.15039 4.5231,0.0336 9.1304,-2.95169 13.5859,-3.59961 4.4555,-0.64792 8.7546,1.04036 13.0977,-1.07031 4.3429,-2.11066 8.7261,-8.01875 12.6582,-9.83008 3.9322,-1.81132 7.4107,0.47512 9.5,0.60743 2.0893,0.1323 2.7916,-1.88937 3.5742,-5.42774 0.7827,-3.53838 1.645,-8.59493 0.9492,-14.45703 -0.6957,-5.86209 -2.9517,-12.53014 -3.834,-16.70899 -0.8824,-4.17883 -0.3913,-5.86699 2.207,-8.11914 2.5983,-2.25214 7.3042,-5.06685 9.8321,-9.11718 2.528,-4.05033 2.8799,-9.33737 4.7773,-12.60938 1.8975,-3.27201 5.3396,-4.52645 6.9141,-8.06445 1.5749,-3.538 1.2807,-9.3598 1.5605,-13.17578 0.2798,-3.816 1.133,-5.62524 2.8653,-7.73633 1.7322,-2.11108 4.3428,-4.52456 7.8183,-6.45703 3.4755,-1.93247 7.814,-3.38401 11.2617,-2.56445 3.4477,0.81954 6.0043,3.90978 6.0313,9.18164 0.027,5.27185 -2.4731,12.72643 -2.7695,17.5625 -0.2965,4.83605 1.6107,7.05251 4.0039,8.82226 2.3933,1.76975 5.2726,3.09252 8.1113,4.1543 2.8387,1.06179 5.6358,1.86174 10.1797,0.85156 4.5439,-1.01018 10.8358,-3.83025 14.4844,-5.90039 3.6485,-2.07015 4.6544,-3.39036 5.2675,-5.65625 0.6131,-2.26589 0.8329,-5.47727 3.6582,-9.5918 2.8253,-4.11451 8.2556,-9.12964 10.6758,-13.42187 2.4202,-4.29224 1.8309,-7.86245 0.4395,-10.5 -1.3915,-2.63756 -3.5855,-4.34167 -6.8789,-6.70703 -3.2933,-2.36537 -7.686,-5.39276 -10.7969,-8.61914 -3.111,-3.22638 -4.9388,-6.653 -8.2363,-8.28907 -3.2974,-1.63606 -8.0656,-1.4793 -12.2422,-4.10351 -4.1766,-2.62422 -7.7613,-8.02943 -13.3965,-10.97266 -5.6351,-2.94323 -13.3195,-3.42337 -20.2559,-5.83203 -6.9363,-2.40865 -13.124,-6.74644 -18.5859,-10.42383 -5.4618,-3.67737 -10.197,-6.69403 -15.7266,-9.17773 -5.5296,-2.48369 -11.8534,-4.43389 -16.7051,-2.875 -4.8517,1.55889 -8.2296,6.62707 -11.625,7.85742 -3.3952,1.23035 -6.8097,-1.37805 -10.7207,-3.56445 -3.9109,-2.18641 -8.3192,-3.94959 -13.3886,-5.27344 -5.0695,-1.32384 -10.7987,-2.20749 -15.9707,-3.54102 -5.172,-1.33351 -9.7871,-3.11829 -12.627,-10.35742 -2.84,-7.23914 -3.9035,-19.93243 -7.1465,-26.08398 -3.2429,-6.15157 -8.6652,-5.7585 -10.7968,-7.82422 -2.1316,-2.06572 -0.9702,-6.5912 -0.3848,-10.05664 0.5853,-3.46546 0.5952,-5.87198 -1.7559,-10.56055 -2.3511,-4.68856 -7.064,-11.65985 -9.8476,-16.4707 -2.7836,-4.81085 -3.6377,-7.46111 -3.8809,-11.82617 -0.2432,-4.36507 0.125,-10.44317 -3.0215,-11.46875 -3.1465,-1.02559 -9.8087,3.00332 -11.5117,-0.39258 -1.703,-3.39592 1.5532,-14.21844 0.7246,-20.83985 -0.8286,-6.6214 -5.7429,-9.04055 -9.5976,-9.83398 -3.8548,-0.79343 -6.6489,0.0398 -9.5645,1.07422 -2.9155,1.03446 -5.9508,2.27002 -10.6504,1.73047 -4.6996,-0.53955 -11.0648,-2.85359 -16.3594,-3.6543 -5.2946,-0.80068 -9.5179,-0.0879 -12.9628,-0.0859 -3.4449,0.002 -6.1097,-0.71009 -8.7286,-2.31054 -2.6188,-1.60046 -5.1915,-4.09105 -6.5644,-6.69532 -1.3729,-2.60426 -1.5455,-5.32054 -1.082,-9.81836 0.4634,-4.4978 1.5622,-10.77612 4.1933,-17.16992 2.6311,-6.39378 6.7934,-12.90164 7.9063,-19.82812 1.1177,-6.92649 -0.82,-14.27256 0,-20 0.8199,-5.72744 4.3993,-9.83546 7.2343,-12.40235 2.835,-2.56689 4.9259,-3.59218 7.5977,-5.22656 2.6719,-1.63438 5.9238,-3.87908 8.2188,-6.49805 2.2949,-2.61896 3.6334,-5.61333 4.1953,-8.95117 0.5619,-3.33783 0.3465,-7.01961 -1.2832,-9.61523 -1.6297,-2.59561 -4.6747,-4.10405 -5.8223,-6.15235 -1.1476,-2.04829 -0.395,-4.63583 1.9629,-8.11132 2.3579,-3.47549 6.3191,-7.83676 6.4746,-10.69727 0.1555,-2.86051 -3.4974,-4.22064 -5.0781,-6.44922 -1.5805,-2.22858 -1.0874,-5.3268 -1.4825,-8.08008 -0.395,-2.75326 -1.679,-5.16122 -4.3906,-6.95312 -2.7115,-1.7919 -6.8515,-2.96642 -8.7754,-5.35742 -1.9236,-2.39101 -1.6292,-5.9989 -0.017,-10.58203 1.6118,-4.58313 4.5414,-10.1412 6.1875,-15.2754 1.6462,-5.1342 2.009,-9.84528 1.0937,-13.66796 -0.9152,-3.8227 -3.1087,-6.75602 -5.6875,-10.03321 -2.5789,-3.27719 -5.5436,-6.89876 -7.8164,-10.06054 -2.2727,-3.16178 -3.8534,-5.86497 -6.2227,-7.55274 -2.3693,-1.68777 -5.527,-2.35766 -10.3378,-2.20508 -4.8108,0.15258 -11.2744,1.12825 -16.7891,1.03125 -5.5147,-0.097 -10.0822,-1.2672 -13.9863,-2.58203 -3.9042,-1.31483 -7.1434,-2.77395 -10.6075,-4.81445 -3.4641,-2.04051 -7.1512,-4.66372 -9.4062,-7.23828 -2.255,-2.57456 -3.0782,-5.10145 -3.6758,-7.7793 -0.5975,-2.67784 -0.9704,-5.50598 -0.2598,-9.51367 0.7106,-4.00768 2.5058,-9.19344 3.6368,-12.85156 1.1311,-3.65814 1.5992,-5.78952 -1.0469,-8.25782 -2.6461,-2.46828 -8.407,-5.27423 -13.8438,-7.57226 -5.4369,-2.29803 -10.5512,-4.08736 -15.623,-5.29492 -5.0718,-1.20757 -10.1014,-1.83146 -13.8438,-2.79493 -3.7424,-0.96345 -6.1983,-2.26634 -7.2968,-7.55664 -1.0986,-5.2903 -0.8383,-14.56872 -1.6504,-23.52734 -0.8122,-8.95863 -2.6969,-17.59775 -3.461,-23.15039 -0.7641,-5.55263 -0.4089,-8.01744 0.8594,-10.33789 1.2682,-2.32044 3.4504,-4.49574 4.7832,-7.7793 1.3328,-3.28355 1.8125,-7.67731 1.8125,-11.79101 0,-4.1137 -0.4976,-7.94775 -2.4141,-9.56446 -1.9163,-1.6167 -5.2555,-1.01476 -8.3085,-3.18554 -3.0529,-2.1708 -5.82,-7.1143 -8.2696,-10.23047 -2.4497,-3.116178 -4.5823,-4.40331 -5.8808,-6.373049 -1.2985,-1.969738 -1.7608,-4.621981 -3.42,-6.126953 -1.6592,-1.504971 -4.5176,-1.862702 -7.7324,-1.283203 -3.2148,0.579498 -6.7854,2.096131 -9.0898,4.332031 -2.3045,2.235901 -3.3413,5.190308 -6.5742,6.677735 -3.2329,1.487429 -8.6628,1.508099 -10.9864,-0.394532 -2.3235,-1.902631 -1.5402,-5.728796 -4.7324,-7.24414 -3.1922,-1.515344 -10.3613,-0.718607 -16.4277,-3.546875 -6.0664,-2.828267 -11.0284,-9.283782 -13.8223,-14.128906 -2.794,-4.845124 -3.418,-8.080542 -6.4707,-10.523438 -3.0526,-2.442896 -8.5342,-4.091401 -15.1133,-3.888672 l -5e-4,-4e-5 c -6.5791,0.202729 -14.2549,2.257348 -20.9785,4.960938 -6.7235,2.70359 -12.4935,6.055711 -17.3047,11.044922 -4.8112,4.989209 -8.6635,11.614947 -14.3613,17.412109 -5.6977,5.797162 -13.2425,10.765793 -27.1914,11.906253 -13.949,1.14046 -34.3028,-1.54783 -54.6582,-4.23633" />
<path
   id="section_1"
   style="display:inline;fill:none;stroke:#00a9ff;stroke-width:10;stroke-linecap:round;stroke-linejoin:round;stroke-dasharray:none;stroke-opacity:1"
   d="m 2061.0371,1044.8867 c 0.1673,-0.4208 0.3176,-0.9552 0.4902,-1.3594 2.9782,-6.9723 6.8497,-11.2915 7.8809,-16.4531 1.0312,-5.1617 -0.7784,-11.1674 -0.4727,-13.168 0.3056,-2.0005 2.7259,0.01 5.6407,1.8907 2.9147,1.8857 6.3233,3.6529 9.5566,3.4765 3.2334,-0.1764 6.2913,-2.2959 10.293,-3.5918 4.0017,-1.296 8.9446,-1.7689 11.3222,-3.4882 2.3776,-1.7192 2.1912,-4.6847 5.5606,-8.9297 3.3694,-4.245 10.294,-9.76768 15.3945,-18.07425 5.1005,-8.30657 8.3762,-19.39689 12.3614,-25.17773 3.985,-5.78086 8.6795,-6.24978 12.7714,-7.5293 4.0919,-1.27951 7.5837,-3.37042 11.0821,-5.22265 3.4983,-1.85225 7.002,-3.46677 10.9922,0.30468 0.068,0.0638 0.1353,0.19879 0.2031,0.26563" />
<path
   id="section_2"
   style="display:inline;fill:none;stroke:#00a9ff;stroke-width:10;stroke-linecap:round;stroke-linejoin:round;stroke-dasharray:none;stroke-opacity:1"
   d="m 1975.8008,1101.5645 c 0.1779,-0.8188 0.4303,-1.6536 0.5976,-2.4473 0.9263,-4.3927 1.9235,-8.2333 5.3985,-8.75 3.4749,-0.5167 9.4257,2.2913 11.9375,2.2363 2.5117,-0.055 1.5851,-2.9758 -0.2383,-6.1074 -1.8234,-3.1315 -4.5431,-6.4733 -3.0742,-10.9043 1.4688,-4.431 7.1281,-9.9496 11.3301,-13.7793 4.202,-3.8296 6.9473,-5.9719 8.3359,-4.3184 1.3887,1.6534 1.4201,7.101 2.625,11.2696 1.2048,4.1687 3.5817,7.0579 7.1621,8.7246 3.5805,1.6666 8.3646,2.111 14.3164,0.6172 5.9518,-1.4938 13.0705,-4.9251 17.6719,-11.4532 4.6014,-6.5279 6.6858,-16.1526 9.664,-23.125 0.044,-0.1033 0.094,-0.1615 0.1387,-0.2636" />
<path
   id="section_3"
   style="display:inline;fill:none;stroke:#00a9ff;stroke-width:10;stroke-linecap:round;stroke-linejoin:round;stroke-dasharray:none;stroke-opacity:1"
   d="m 1870.8248,1172.2468 c 2.0847,-0.7155 4.4535,-2.1269 6.265,-3.0925 6.9429,-3.7008 11.4728,-9.7275 16.6602,-14.3691 5.1875,-4.6416 11.0307,-7.8971 12.5898,-13.1719 1.559,-5.2747 -1.167,-12.5711 0.2813,-13.7695 1.4484,-1.1985 7.0714,3.7023 13.2227,5.6367 6.1512,1.9343 12.8311,0.9032 18.9804,-1.7637 6.1494,-2.6669 11.7687,-6.9704 17.5039,-10.2969 5.7353,-3.3265 11.5852,-5.6747 14.9375,-9.3203 2.9443,-3.202 3.8987,-7.3821 4.7305,-11.334" />
<path
   id="section_4"
   style="display:inline;fill:none;stroke:#00a9ff;stroke-width:10;stroke-linecap:round;stroke-linejoin:round;stroke-dasharray:none;stroke-opacity:1"
   d="m 1712.1543,1095.7402 c 3.8361,3.505 6.0225,7.1096 8.082,10.1895 2.6024,3.8916 6.0192,6.8968 9.0645,8.2324 3.0454,1.3357 5.7222,1.0037 8.8047,2.1055 3.0826,1.1018 6.5677,3.6341 5.0195,6.166 -1.5483,2.5319 -8.1294,5.0607 -7.8984,9.1602 0.2309,4.0994 7.2745,9.7694 12.0039,12.373 4.7295,2.6037 7.1445,2.1429 10.5351,2.2109 3.3905,0.068 7.757,0.666 11.5996,2.3164 3.8425,1.6505 7.1612,4.3531 9.377,8.8711 2.2159,4.518 3.3289,10.8496 6.5488,12.8262 3.22,1.9766 8.546,-0.4012 10.7246,1.0918 2.1786,1.4929 1.2109,6.8552 4.5176,8.7363 3.3066,1.8811 10.8871,0.283 16.1172,1.0801 5.2301,0.797 8.1089,3.9881 13.5137,3.4707 5.4048,-0.5174 13.3354,-4.7414 21.9804,-7.541 6.3102,-2.0435 12.6997,-3.5828 18.5528,-5.5664" />
<path
   id="section_5"
   style="display:inline;fill:none;stroke:#00a9ff;stroke-width:10;stroke-linecap:round;stroke-linejoin:round;stroke-dasharray:none;stroke-opacity:1"
   d="m 1591.7852,1062.0547 c 8.7167,-1.0568 18.8398,-2.5761 26.957,-4.0156 10.3255,-1.8312 16.0868,-2.7815 16.7461,-5.5 0.6593,-2.7184 -3.7849,-7.2066 -3.7949,-8.5118 -0.01,-1.3052 4.4107,0.5729 8.5156,1.2227 4.1048,0.6498 7.892,0.071 10.6797,2.0762 2.7878,2.0054 4.5733,6.5909 7.1523,6.3535 2.5791,-0.2374 5.9514,-5.2967 8.3242,-5.8711 2.3728,-0.5745 3.7463,3.3362 6.17,5.7051 2.4237,2.3689 5.8948,3.1967 7.2675,7.5429 1.3728,4.3463 0.6478,12.2096 6.0078,18.0332 5.36,5.8235 16.8041,9.6069 23.42,13.8887 1.059,0.6854 1.4094,1.414 2.2441,2.1192" />
<path
   id="section_6"
   style="display:inline;fill:none;stroke:#00a9ff;stroke-width:10;stroke-linecap:round;stroke-linejoin:round;stroke-dasharray:none;stroke-opacity:1"
   d="m 1569.9062,1050.5254 c 0.2212,1.8629 0.3875,4.0535 0.7383,5.5098 1.4664,6.0866 4.7301,7.6747 13.8067,7.1113 1.8916,-0.1174 4.8438,-0.7877 7.1465,-1.0645" />
<path
   id="section_7"
   style="display:inline;fill:none;stroke:#00a9ff;stroke-width:10;stroke-linecap:round;stroke-linejoin:round;stroke-dasharray:none;stroke-opacity:1"
   d="m 1468.2734,973.51758 c 3.2653,0.52626 6.1268,1.33307 7.9707,3.01367 3.5104,3.19949 3.4736,9.50407 5.1563,13.9375 1.6828,4.43343 5.0833,6.99907 7.1621,10.29105 2.0787,3.292 2.8359,7.306 6.4102,11.2793 3.5743,3.9734 9.9615,7.9 13.1523,8.0605 3.1907,0.1606 3.1837,-3.4476 4.3398,-6.4863 1.1561,-3.0387 3.4746,-5.5066 6.8457,-7.1524 3.3711,-1.6458 7.7936,-2.4679 9.918,-0.5703 2.1243,1.8976 1.9506,6.5149 4.7363,8.9004 2.7857,2.3855 8.53,2.5419 15.004,4.502 6.4738,1.9601 13.6729,5.7211 17.1074,12.8965 2.5375,5.3016 3.0918,11.9977 3.7617,17.832" />
<path
   id="section_8"
   style="display:inline;fill:none;stroke:#00a9ff;stroke-width:10;stroke-linecap:round;stroke-linejoin:round;stroke-dasharray:none;stroke-opacity:1"
   d="m 1388.3789,929.41602 c -0.3632,4.27742 2.0654,8.45253 3.2266,12.42187 1.3333,4.55779 0.7534,8.84939 3.0547,11.1582 2.3014,2.30883 7.4813,2.63379 10.916,6.11719 3.4348,3.4834 5.1243,10.12282 10.2968,12.1875 5.1726,2.06468 13.8283,-0.44485 21.5332,-0.90039 7.705,-0.45554 14.4575,1.14382 21.3633,1.99023 3.3371,0.40902 6.6833,0.65531 9.6739,1.14844" />
<path
   id="section_9"
   style="display:inline;fill:none;stroke:#00a9ff;stroke-width:10;stroke-linecap:round;stroke-linejoin:round;stroke-dasharray:none;stroke-dashoffset:0;stroke-opacity:1"
   d="m 1221.6816,921.37695 c 5.209,0.19606 10.6395,1.02497 15.5567,1.16407 6.2998,0.1782 11.6171,-1.19189 14.4648,-3.02344 2.8477,-1.83155 3.2251,-4.12548 1.1875,-6.91016 -2.0377,-2.78468 -6.4905,-6.06016 -5.2812,-10.05078 1.2093,-3.99062 8.0818,-8.69403 14.1113,-7.32031 6.0295,1.37371 11.2128,8.82357 16.1113,11.20703 4.8985,2.38346 9.5135,-0.29898 12.1309,1.4082 2.6173,1.70718 3.2376,7.8022 6.168,12.37305 2.9304,4.57084 8.1681,7.61817 12.1367,8.30469 3.9685,0.68652 6.6654,-0.98652 8.7031,-4.32032 2.0377,-3.33379 3.4153,-8.32868 6.3887,-8.49414 2.9733,-0.16545 7.5433,4.49764 11.875,3.31641 4.3317,-1.18123 8.4275,-8.20536 12.8789,-11.10547 4.4515,-2.90011 9.257,-1.67642 13.8984,-2.86523 4.6414,-1.18882 9.1167,-4.78988 13.6953,-5.51953 4.5786,-0.72966 9.2583,1.41128 13.7871,4.0371 4.5288,2.62583 8.906,5.73594 7.9278,9.82618 -0.9782,4.09024 -7.3133,9.16339 -8.8555,14.10937 -0.3997,1.28181 -0.4611,2.55374 -0.334,3.81641" />
<path
   id="section_10"
   style="display:inline;fill:none;stroke:#00a9ff;stroke-width:10;stroke-linecap:round;stroke-linejoin:round;stroke-dasharray:none;stroke-opacity:1"
   d="m 1171.7871,962.11523 c 1.4543,-1.18337 3.1975,-0.71583 6.6328,-1.20117 4.129,-0.58335 10.5362,-3.19424 14.5215,-9.0957 3.9854,-5.90146 5.5487,-15.09298 9.0508,-21.12695 3.5021,-6.03398 8.9414,-8.9091 15.3027,-9.48243 1.4968,-0.1349 3.1292,0.11192 4.7031,0.18164" />
<path
   id="section_11"
   style="display:inline;fill:none;stroke:#00a9ff;stroke-width:10;stroke-linecap:round;stroke-linejoin:round;stroke-dasharray:none;stroke-opacity:1"
   d="m 1132.3247,954.33315 c 4.6198,5.17616 8.4227,13.50309 12.4878,18.71568 4.7879,6.13942 9.6151,7.52375 13.2344,7.66211 3.6193,0.13837 6.0313,-0.96986 7.9199,-4.86133 1.8886,-3.89147 3.254,-10.56847 4.8633,-13.18359 0.4479,-0.72796 1.0566,-0.6822 1.5859,-0.91211" />
<path
   id="section_12"
   style="display:inline;fill:none;stroke:#00a9ff;stroke-width:10;stroke-linecap:round;stroke-linejoin:round;stroke-dasharray:none;stroke-opacity:1"
   d="m 1099.0723,1022.8965 c 2.7905,-4.8858 1.8668,-10.5459 3.3574,-13.7754 1.6605,-3.5974 6.5825,-4.1238 10.0742,-6.4961 3.4917,-2.3723 5.5548,-6.58959 4.2207,-9.74805 -1.3341,-3.15845 -6.0661,-5.25797 -9.2109,-8.17187 -3.1449,-2.91391 -4.7019,-6.64214 -1.5606,-7.9707 3.1414,-1.32856 10.9798,-0.25714 12.5235,-4.06641 1.5436,-3.80927 -3.2081,-12.4999 -2.2481,-17.90625 0.96,-5.40635 7.631,-7.52572 13.3399,-3.13672 0.9809,0.75416 2.2654,2.10923 3.1946,3.19042" />
<path
   id="section_13"
   style="display:inline;fill:none;stroke:#00a9ff;stroke-width:10;stroke-linecap:round;stroke-linejoin:round;stroke-dasharray:none;stroke-dashoffset:0;stroke-opacity:1"
   d="m 1063.9546,1063.0242 c 4.055,-7.2111 7.6211,-15.0022 12.5591,-20.7996 7.4558,-8.7533 17.4561,-12.4646 21.6562,-17.6523 0.461,-0.5695 0.6356,-1.1998 0.9688,-1.7989" />
<path
   id="section_14"
   style="display:inline;fill:none;stroke:#00a9ff;stroke-width:10;stroke-linecap:round;stroke-linejoin:round;stroke-dasharray:none;stroke-opacity:1"
   d="m 1014.3672,1117.9746 c 1.2322,0.313 2.5525,0.9847 3.6816,1.1445 7.0885,1.0031 11.4115,-1.2287 14.4063,-3.5957 2.9948,-2.3669 4.6554,-4.8641 4.4531,-6.8007 -0.2023,-1.9365 -2.2711,-3.3082 -3.4199,-6.6563 -1.1488,-3.3482 -1.3775,-8.6791 3.0683,-12.9258 4.4457,-4.2467 13.5642,-7.4111 20.5782,-15.8906 2.3941,-2.8943 5.0068,-7.071 7.0953,-10.7918" />
<path
   id="section_15"
   style="display:inline;fill:none;stroke:#00a9ff;stroke-width:10;stroke-linecap:round;stroke-linejoin:round;stroke-dasharray:none;stroke-opacity:1"
   d="m 921.17188,1065.9727 c 3.51044,-1.887 6.94416,-4.4613 9.15624,-7.2481 4.27453,-5.3851 3.8752,-11.2167 5.5879,-15.0625 1.71269,-3.8457 5.53675,-5.7034 9.10742,-5.9746 3.57065,-0.2712 6.88706,1.0441 7.60351,4.5039 0.71645,3.4599 -1.16477,9.0638 1.87891,12.6191 3.04368,3.5554 11.01084,5.0619 14.73242,9.0879 3.72157,4.0259 3.19859,10.5694 3.06836,16.3438 -0.13023,5.7745 0.13115,10.7799 4.16992,10.7539 4.03878,-0.026 11.85394,-5.0818 16.46094,-5.4414 4.60699,-0.3595 6.00516,3.9758 5.18945,8.7715 -0.8157,4.7958 -3.84409,10.0522 -0.43164,14.8008 2.86889,3.9921 10.16859,7.1955 16.67189,8.8476" />
<path
   id="section_16"
   style="display:inline;fill:none;stroke:#00a9ff;stroke-width:10;stroke-linecap:round;stroke-linejoin:round;stroke-dasharray:none;stroke-opacity:1"
   d="m 900.91211,1005.6602 c 1.98869,1.6618 3.43954,4.3323 4.2793,8.7988 1.75576,9.3386 1.00397,26.1853 1.08007,37.3594 0.0761,11.1739 0.98148,16.6743 5.90821,16.9531 2.53202,0.1433 6.08823,-1.1339 9.56445,-3.0996" />
<path
   id="section_17"
   style="display:inline;fill:none;stroke:#00a9ff;stroke-width:10;stroke-linecap:round;stroke-linejoin:round;stroke-dasharray:none;stroke-opacity:1"
   d="m 851.31641,928.60547 c 5.99129,3.04075 10.39228,10.11034 14.625,15.06836 4.51417,5.28769 8.90859,7.99705 6.08007,14.1914 -2.82851,6.19436 -12.87784,15.87279 -14.91796,24.54688 -2.04013,8.67409 3.92712,16.3408 11.5625,19.34769 7.63537,3.0068 16.93682,1.3543 23.7207,1.4433 3.70275,0.048 6.58566,0.7619 8.78906,2.7852" />
<path
   id="section_18"
   style="display:inline;fill:none;stroke:#00a9ff;stroke-width:10;stroke-linecap:round;stroke-linejoin:round;stroke-dasharray:none;stroke-opacity:1"
   d="m 753.81055,941.89844 c 0.53472,2.17291 1.16631,4.34881 2.2539,6.44531 5.07531,9.7834 17.34334,18.09922 28.63672,20.7168 11.29338,2.61757 21.6108,-0.46257 28.37695,-7.83203 6.76617,-7.36948 9.98029,-19.02894 15.90235,-26.17383 5.92206,-7.14457 14.55019,-9.77346 21.18164,-7.1543 0.63587,0.25114 1.1746,0.74327 1.77539,1.08399" />
<path
   id="section_19"
   style="display:inline;fill:none;stroke:#00a9ff;stroke-width:10;stroke-linecap:round;stroke-linejoin:round;stroke-dasharray:none;stroke-opacity:1"
   d="m 643.86523,919.91602 c 3.25648,-4.28395 6.43947,-9.22141 7.98633,-13.50782 1.56723,-4.34285 1.47801,-8.00892 3.13867,-11.04687 1.66067,-3.03795 5.07082,-5.44475 8.3086,-3.90821 3.23778,1.53655 6.30337,7.01488 11.33789,10.39454 5.03451,3.37964 12.03742,4.66148 16.76172,7.69726 4.72429,3.03577 7.16924,7.82563 10.38476,8.02344 3.21554,0.19781 7.20062,-4.19653 10.56055,-5.69922 3.35993,-1.50269 6.09457,-0.11447 10.42578,-0.10547 4.33123,0.009 10.25892,-1.35773 15.93555,-0.87109 5.67663,0.48664 11.10085,2.82723 12.75195,9.62304 1.2928,5.32109 0.39288,13.36041 2.32617,21.30079" />
<path
   id="section_20"
   style="display:inline;fill:none;stroke:#00a9ff;stroke-width:10;stroke-linecap:round;stroke-linejoin:round;stroke-dasharray:none;stroke-opacity:1"
   d="m 550.76758,937.48828 c 3.13131,-2.12005 4.02233,-6.28162 5.04883,-10.54101 1.19772,-4.96987 2.7861,-9.8842 5.83789,-9.8418 3.05178,0.0424 7.56618,5.04109 12.30859,4.60742 4.74243,-0.43366 9.7137,-6.29849 11.86328,-3.4375 2.14959,2.86099 1.47799,14.44658 4.4668,19.58594 2.9888,5.13934 9.63812,3.83393 12.79101,-2.57813 3.1529,-6.41205 2.8099,-17.93026 7.41993,-22.28711 4.61003,-4.35685 14.17048,-1.55092 17.31054,1.42188 3.14007,2.97281 -0.13931,6.11253 -0.22851,9.01562 -0.0892,2.9031 3.0115,5.56799 6.25195,5.08789 3.24045,-0.4801 6.62018,-4.10527 9.92188,-8.42773 0.008,-0.0105 0.0115,-0.0227 0.0195,-0.0332" />
<path
   id="section_21"
   style="display:inline;fill:none;stroke:#00a9ff;stroke-width:10;stroke-linecap:round;stroke-linejoin:round;stroke-dasharray:none;stroke-opacity:1"
   d="m 9.9707031,625.36914 c 7.5982449,7.40562 12.6245709,12.50132 18.6816409,15.68164 6.06218,3.18034 10.588753,2.13873 13.484375,0.48047 2.895622,-1.65825 4.16068,-3.93286 9.939453,-2.76367 5.778773,1.16919 16.070495,5.78152 17.503906,10.88672 1.433412,5.10518 -5.989822,10.70344 -8.15039,16.58398 -2.160569,5.88056 0.941115,12.04162 8.304687,9.05469 7.363572,-2.98693 18.989422,-15.11974 26.869141,-17.63867 7.879714,-2.51894 12.011374,4.57371 19.115234,3.94531 7.10386,-0.6284 17.17917,-8.97703 23.55078,-11.25195 6.37162,-2.27492 9.03838,1.52374 11.5625,2.01367 2.52411,0.48993 4.90603,-2.32709 8.75781,-3.93164 3.85179,-1.60455 9.17239,-1.99703 10.64454,0.64258 1.47214,2.63959 -0.90203,8.31079 2.21874,12.92187 3.12078,4.6111 11.73435,8.16168 15.79493,13.21484 4.06058,5.05317 3.56809,11.60774 8.16797,19.04883 4.59987,7.4411 14.29011,15.76779 17.10546,22.41797 2.81537,6.65017 -1.24273,11.6237 -5.16406,16.77734 -3.92132,5.15364 -7.70544,10.48728 -5.37695,13.33204 2.32848,2.84476 10.76884,3.20063 19.18164,2.23046 8.4128,-0.97015 16.79587,-3.26602 23.19922,-1.79296 6.40333,1.47305 10.82279,6.71252 10.57031,11.78125 -0.25248,5.06871 -5.17599,9.96762 -9.03516,15.53711 -3.85915,5.56948 -6.65244,11.8099 -2.63671,15.68164 4.01572,3.87173 14.83906,5.37528 21.34179,10.35937 6.50275,4.98411 8.68411,13.44561 7.42578,19.68945 -1.25832,6.24384 -5.95637,10.27055 -3.99023,13.00586 1.96613,2.73533 10.59654,4.17909 17.40234,6.5586 6.80582,2.37951 11.7861,5.69409 14.18555,13.41992 2.39945,7.72583 2.21759,19.86109 4.40625,22.57422 2.18866,2.71313 6.74795,-3.99706 11.43359,-7.35938 4.68566,-3.36231 9.49731,-3.37605 10.82422,-0.34375 1.3269,3.0323 -0.82917,9.11047 0.58594,12.82617 1.41512,3.7157 6.39916,5.06894 11.51953,2.57422 5.12038,-2.49472 10.37789,-8.83602 13.93945,-9.81054 3.56157,-0.97453 5.42609,3.41636 8.73633,7.28906 3.31025,3.87271 8.06473,7.22633 11.53516,6.30859 3.47043,-0.91773 5.65823,-6.10531 9.0625,-7.48047 3.40428,-1.37516 8.02396,1.0617 9.20508,4.42188 1.18112,3.36019 -1.0754,7.643 1.625,12.16992 2.70039,4.52694 10.35466,9.29662 12.82422,15.21289 2.46956,5.91627 -0.24345,12.97902 0.13085,18.27539 0.37431,5.29637 3.83546,8.82727 7.59376,9.60742 3.75828,0.78016 7.8134,-1.18966 9.86132,-8.69531 2.04792,-7.50564 2.08942,-20.54848 6.39063,-26.0039 4.30119,-5.45543 12.86148,-3.32158 18.86719,-0.16211 6.0057,3.15945 9.45612,7.34282 14.0371,11.17968 4.58099,3.83687 10.2901,7.32739 13.66797,11.49219 3.37788,4.16481 4.426,9.00428 7.80469,12.40235 3.3787,3.39806 9.08745,5.35565 14.63867,5.31445 5.55124,-0.0412 10.94534,-2.08152 14.24805,-5.2461 3.30271,-3.16458 4.51431,-7.45382 0.24023,-9.31054 -4.27407,-1.85672 -14.0362,-1.27969 -18.01953,-3.10157 -3.98331,-1.82186 -2.18602,-6.04457 -3.56445,-11.63671 -1.37843,-5.59214 -5.93293,-12.55474 -7.3418,-18.05274 -1.40887,-5.49799 0.33001,-9.52911 4.37696,-9.95703 4.04694,-0.42792 10.40006,2.74844 15.01562,2.27539 4.61556,-0.47305 7.4943,-4.59629 10.96485,-6.42578 3.47055,-1.82948 7.5319,-1.3661 10.25585,0.91406 2.72397,2.28017 4.10928,6.37601 5.44922,10.08789 1.33995,3.71188 2.63445,7.0401 2.03516,13.91211 -0.59928,6.87201 -3.09063,17.28772 -0.0664,23.45508 3.02423,6.16735 11.56084,8.08636 16.23242,6.5332 0.97479,-0.32409 1.69809,-0.87634 2.375,-1.4707" />
<path
   style="fill:none;stroke:#00caff;stroke-width:3;stroke-linecap:butt;stroke-linejoin:miter;stroke-dasharray:none;stroke-opacity:1"
   d="m 126.79975,523.82789 c -10.11437,-2.29657 -20.22972,-4.59336 -25.1243,-11.15744 -4.89457,-6.56408 -4.566798,-17.39541 -10.092116,-23.74369 -5.525318,-6.34828 -16.90422,-8.21196 -29.35642,-7.20516 -12.4522,1.0068 -25.976283,4.88449 -34.846333,11.75655 -8.87005,6.87205 -13.085592,16.73805 -17.076595,24.87178 -3.9910038,8.13374 -7.7569847,14.53442 -11.5232252,20.93555"
   id="river_Mosel" />
<path
   style="fill:none;stroke:#00caff;stroke-width:7;stroke-linecap:butt;stroke-linejoin:miter;stroke-dasharray:none;stroke-opacity:1"
   d="m -2.8533624,792.76306 c 2.478073,-2.93269 4.9562707,-5.86553 7.434406,-8.79829 4.6106671,-6.02583 9.2211254,-12.05139 8.6208734,-30.70203 -0.600252,-18.65064 -6.4114957,-49.92508 -8.5206178,-77.21285 -2.109122,-27.28777 -0.5155887,-50.58535 9.9681268,-68.57376 10.483716,-17.98841 29.856448,-30.66467 54.334857,-45.54868 24.47841,-14.88402 54.060277,-31.97451 74.897337,-51.91724 20.83705,-19.94273 32.92732,-42.73585 32.71389,-61.01187 -0.21343,-18.27602 -12.73064,-32.03226 -22.01984,-46.34248 -9.28919,-14.31022 -15.34543,-29.16742 -19.47694,-42.1855 -4.1315,-13.01809 -6.33645,-24.19273 -15.4889,-30.5519 -9.15245,-6.35918 -25.254736,-7.90244 -47.085207,-9.42447 -21.830471,-1.52204 -49.388199,-3.02277 -76.9475333,-4.52358"
   id="river_Rhein" />
<g
   id="markers"
   fill="#292929"
   opacity="1"
   stroke-width="0.931216"
   stroke-miterlimit="21"
   paint-order="fill markers stroke"
   transform="matrix(1.0738259,0,0,1.0739036,-132.93261,-83.640878)"
   style="display:inline">
<circle
   id="dot_0"
   cx="2084.0498"
   cy="276.03119"
   r="11.344514" />
<circle
   id="dot_1"
   cx="2184.5991"
   cy="392.22305"
   r="11.344514" />
<circle
   id="path2291-2"
   cx="2312.4802"
   cy="857.42706"
   r="11.344514" />
<circle
   id="dot_Giessen"
   cx="1868.939"
   cy="1177.7063"
   r="11.344514" />
<circle
   id="path2291-28"
   cx="1605.7574"
   cy="1068.2495"
   r="11.344514" />
<ellipse
   id="path2291-36"
   cx="1490.8888"
   cy="993.24005"
   rx="11.344497"
   ry="11.344514" />
<circle
   id="path2291-31"
   cx="1213.379"
   cy="967.83252"
   r="11.344514" />
<circle
   id="path2291-4"
   cx="823.48383"
   cy="954.89764"
   r="11.344514" />
<circle
   id="path2291-361"
   cx="727.62628"
   cy="937.45032"
   r="11.344514" />
<circle
   id="path2291-20"
   cx="284.14127"
   cy="673.81396"
   r="11.344514" />
<circle
   id="path2291-5"
   cx="140.88525"
   cy="686.20325"
   r="11.344514" />
<circle
   id="path2291-56"
   cx="205.8884"
   cy="567.34448"
   r="11.344514" />
<circle
   id="dot_Roth"
   cx="2147.3892"
   cy="959.0835"
   r="11.344514" />
<circle
   id="dot_Odenhausen"
   cx="2030.0573"
   cy="1043.4264"
   r="11.344514" />
<circle
   id="dot_Wettenberg"
   cx="1951.7404"
   cy="1092.3625"
   r="11.344514" />
<circle
   id="dot_Dorlar"
   cx="1727.8804"
   cy="1087.3644"
   r="11.344514" />
<circle
   id="path2291-30-6"
   cx="1571.9727"
   cy="1059.5873"
   r="11.344514" />
<circle
   id="path2291-30-5"
   cx="1432.4188"
   cy="945.40533"
   r="11.344514" />
<circle
   id="path2291-30-7"
   cx="1341.8204"
   cy="926.77753"
   r="11.344514" />
<circle
   id="path2291-30-2"
   cx="1261.9285"
   cy="923.87122"
   r="11.344514" />
<circle
   id="dot_Odersbach"
   cx="1189.2025"
   cy="957.25311"
   r="11.344514" />
<circle
   id="path2291-30-59"
   cx="1158.7913"
   cy="1036.8928"
   r="11.344514" />
<circle
   id="path2291-30-0"
   cx="1126.9962"
   cy="1074.5692"
   r="11.344514" />
<circle
   id="path2291-30-1"
   cx="1070.5507"
   cy="1105.8604"
   r="11.344514" />
<circle
   id="path2291-30-76"
   cx="987.96985"
   cy="1082.6173"
   r="11.344514" />
<circle
   id="path2291-30-56"
   cx="957.12177"
   cy="1021.2807"
   r="11.344514" />
<circle
   id="path2291-30-81"
   cx="922.23773"
   cy="933.00781"
   r="11.344514" />
<circle
   id="path2291-30-9"
   cx="644.74329"
   cy="961.57642"
   r="11.344514" />
<path
   id="mark_Lahnkopf"
   d="m 1824.5865,74.861398 h -17.554 -17.554 l 8.777,-15.202219 8.777,-15.202218 8.777,15.202218 z"
   transform="translate(20.148722,95.7934)" />
</g>
<g
   id="text_items"
   font-style="normal"
   font-variant="normal"
   font-weight="bold"
   font-stretch="normal"
   font-size="27px"
   line-height="2.6px"
   font-family="sans-serif"
   transform="matrix(1.0738259,0,0,1.0739036,-135.36801,-83.641085)"
   stroke-width="0.9"
   letter-spacing="0px"
   word-spacing="0px"
   style="display:inline">
<text
   xml:space="preserve"
   x="2070.0076"
   y="259.53494"
   id="text_0"> <tspan
   id="tspan2345"
   x="2070.0076"
   y="259.53494"
   style="stroke-width:0.931216">Bad Laasphe</tspan>
</text>
<text
   xml:space="preserve"
   x="2196.6921"
   y="399.57983"
   id="text_1"> <tspan
   id="tspan2345-9"
   x="2196.6921"
   y="399.57983"
   style="stroke-width:0.931216">Biedenkopf</tspan>
</text>
<text
   xml:space="preserve"
   x="2206.8357"
   y="838.21368"
   id="text_2"> <tspan
   id="tspan2345-2"
   x="2206.8357"
   y="838.21368"
   style="stroke-width:0.931216">Marburg</tspan>
</text>
<text
   xml:space="preserve"
   x="1887.454"
   y="1187.9818"
   id="text_Giessen"> <tspan
   id="tspan13243"
   x="1887.454"
   y="1187.9818">Gieen</tspan>
</text>
<text
   xml:space="preserve"
   x="1547.1267"
   y="1104.2202"
   id="text_Wetzlar"> <tspan
   id="tspan2345-7"
   x="1547.1267"
   y="1104.2202"
   style="stroke-width:0.931216">Wetzlar</tspan>
</text>
<text
   xml:space="preserve"
   x="1384.9293"
   y="1003.2693"
   id="text2347-1"> <tspan
   id="tspan2345-29"
   x="1384.9293"
   y="1003.2693"
   style="stroke-width:0.931216">Solms</tspan>
</text>
<text
   xml:space="preserve"
   x="1220.4614"
   y="1000.3013"
   id="text_Weilburg"> <tspan
   id="tspan2345-78"
   x="1220.4614"
   y="1000.3013"
   style="stroke-width:0.931216">Weilburg</tspan>
</text>
<text
   xml:space="preserve"
   x="704.32172"
   y="984.01538"
   id="text2347-5"> <tspan
   id="tspan2345-0"
   x="704.32172"
   y="984.01538"
   style="stroke-width:0.931216">Limburg</tspan>
</text>
<text
   xml:space="preserve"
   x="661.9198"
   y="920.49817"
   id="text2347-06"> <tspan
   id="tspan2345-3"
   x="661.9198"
   y="920.49817"
   style="stroke-width:0.931216">Diez</tspan>
</text>
<text
   xml:space="preserve"
   x="300.22446"
   y="683.84052"
   id="text2347-6"> <tspan
   id="tspan2345-1"
   x="300.22446"
   y="683.84052"
   style="stroke-width:0.931216">Bad Ems</tspan>
</text>
<text
   xml:space="preserve"
   x="133.1286"
   y="727.73859"
   id="text2347-54"> <tspan
   id="tspan2345-76"
   x="133.1286"
   y="727.73859"
   style="stroke-width:0.931216">Lahnstein</tspan>
</text>
<text
   xml:space="preserve"
   x="174.59897"
   y="601.76855"
   id="Text_Koblenz"> <tspan
   id="tspan2345-74"
   x="174.59897"
   y="601.76855"
   style="stroke-width:0.931216">Koblenz</tspan>
</text>
<text
   xml:space="preserve"
   x="1762.609"
   y="201.76064"
   id="text2347-74"> <tspan
   id="tspan2345-4"
   x="1762.609"
   y="201.76064"
   style="stroke-width:0.931216">Lahnkopf</tspan>
</text>
<text
   xml:space="preserve"
   x="2091.2341"
   y="943.05261"
   id="text2347-78"> <tspan
   id="tspan2345-6"
   x="2091.2341"
   y="943.05261"
   style="stroke-width:0.931216">Roth</tspan>
</text>
<text
   xml:space="preserve"
   x="1845.1787"
   y="1028.842"
   id="text_Odenhausen"> <tspan
   x="1845.1787"
   y="1028.842"
   id="tspan2868"
   style="stroke-width:0.931216">Odenhausen</tspan>
</text>
<text
   xml:space="preserve"
   x="1782.7903"
   y="1070.6437"
   id="text_Wettenberg"> <tspan
   id="tspan2345-06"
   x="1782.7903"
   y="1070.6437"
   style="stroke-width:0.931216">Wettenberg</tspan>
</text>
<text
   xml:space="preserve"
   x="1744.4236"
   y="1097.4462"
   id="text_Dorlar"> <tspan
   id="tspan13344"
   x="1744.4236"
   y="1097.4462">Dorlar</tspan>
</text>
<text
   xml:space="preserve"
   x="1374.8555"
   y="1068.8354"
   id="text_Kanustation"> <tspan
   id="tspan2345-6-4"
   x="1374.8555"
   y="1068.8354"
   style="stroke-width:0.931216">Kanustation</tspan>
</text>
<text
   xml:space="preserve"
   x="1447.1396"
   y="954.93658"
   id="text_Leun"> <tspan
   id="tspan2345-6-48"
   x="1447.1396"
   y="954.93658"
   style="stroke-width:0.931216">Leun</tspan>
</text>
<text
   xml:space="preserve"
   x="1326.8848"
   y="909.98907"
   id="text2347-78-1"> <tspan
   id="tspan2345-6-7"
   x="1326.8848"
   y="909.98907"
   style="stroke-width:0.931216">Biskirchen</tspan>
</text>
<text
   xml:space="preserve"
   x="1144.3381"
   y="907.3205"
   id="text2347-78-7"> <tspan
   id="tspan2345-6-22"
   x="1144.3381"
   y="907.3205"
   style="stroke-width:0.931216">Lhnberg</tspan>
</text>
<text
   xml:space="preserve"
   x="1015.5211"
   y="954.8399"
   id="text_Odersbach"> <tspan
   id="tspan2345-6-1"
   x="1015.5211"
   y="954.8399"
   style="stroke-width:0.931216">Odersbach</tspan>
</text>
<text
   xml:space="preserve"
   x="1174.9237"
   y="1048.0861"
   id="text2347-78-4"> <tspan
   id="tspan2345-6-9"
   x="1174.9237"
   y="1048.0861"
   style="stroke-width:0.931216">Grveneck</tspan>
</text>
<text
   xml:space="preserve"
   x="1143.9877"
   y="1084.6995"
   id="text_Fuerfurt"> <tspan
   id="tspan2345-6-77"
   x="1143.9877"
   y="1084.6995"
   style="stroke-width:0.931216">Frfurt</tspan>
</text>
<text
   xml:space="preserve"
   x="1030.7385"
   y="1142.9604"
   id="text_Aumenau"> <tspan
   id="tspan2345-6-97"
   x="1030.7385"
   y="1142.9604"
   style="stroke-width:0.931216">Aumenau</tspan>
</text>
<text
   xml:space="preserve"
   x="867.14514"
   y="1093.0701"
   id="text_Villmar"> <tspan
   id="tspan2345-6-6"
   x="867.14514"
   y="1093.0701"
   style="stroke-width:0.931216">Villmar</tspan>
</text>
<text
   xml:space="preserve"
   x="841.30365"
   y="1035.6387"
   id="text_Runkel"> <tspan
   id="tspan2345-6-94"
   x="841.30365"
   y="1035.6387"
   style="stroke-width:0.931216">Runkel</tspan>
</text>
<text
   xml:space="preserve"
   x="877.80103"
   y="918.13196"
   id="text_Dehrn"> <tspan
   id="tspan2345-6-93"
   x="877.80103"
   y="918.13196"
   style="stroke-width:0.931216">Dehrn</tspan>
</text>
<text
   xml:space="preserve"
   x="496.41165"
   y="995.07843"
   id="text_Balduinstein"> <tspan
   id="tspan2345-6-8"
   x="496.41165"
   y="995.07843"
   style="stroke-width:0.931216">Balduinstein</tspan>
</text>
</g>
<g
   fill="none"
   stroke="#000000"
   stroke-width="0.8"
   stroke-linecap="round"
   stroke-linejoin="miter"
   stroke-dasharray="none"
   stroke-opacity="0"
   marker-start="url(#arrow)"
   marker-end="url(#arrow_rev)"
   id="locks">
<path
   d="m 1717.7425,1101.6719 c -1.6785,-1.9129 -3.358,-3.827 -5.0384,-5.7421"
   id="lock_Dorlar" />
<path
   d="m 1619.7381,1057.3272 c -2.7306,0.6333 -5.4628,1.2671 -8.1964,1.9011"
   id="lock_Wetzlar" />
<path
   d="m 1673.3349,1051.0288 c -2.6666,-0.8643 -5.3345,-1.7291 -8.0041,-2.5944"
   id="lock_Naunheim" />
<path
   d="m 1534.7091,1016.0926 c -1.2921,-2.4875 -2.5849,-4.9765 -3.8784,-7.4668"
   id="lock_Altenberg" />
<path
   d="m 1492.7966,1008.1453 c -1.5349,-2.3455 -3.0708,-4.6923 -4.6074,-7.0404"
   id="lock_Oberbiel" />
<path
   d="m 1485.7526,997.45818 c -1.3805,-2.43953 -2.7618,-4.88053 -4.1438,-7.32283"
   id="lock_Niederbiel" />
<path
   d="m 1234.0126,922.27904 c -2.7935,-0.23276 -5.5884,-0.46563 -8.385,-0.69864"
   id="lock_Loehnberg" />
<path
   d="m 1120.9148,967.20871 c -1.4137,2.42038 -2.8284,4.84233 -4.2437,7.26542"
   id="lock_Kirschhofen" />
<path
   d="m 1190.0621,955.70986 c -2.4664,1.33198 -4.9342,2.66474 -7.4033,3.99822"
   id="lock_Weilburg" />
<path
   d="m 1170.1746,965.07767 c -1.0243,2.60916 -2.0492,5.21993 -3.0746,7.83209"
   id="lock_Weilburg2" />
<path
   d="m 1064.1761,1062.3793 c -1.4461,2.4012 -2.8931,4.8039 -4.3408,7.2078"
   id="lock_Fuerfurt" />
<path
   d="m 927.33002,1061.5593 c -2.31746,1.5768 -4.63637,3.1546 -6.95641,4.7332"
   id="lock_Villmar" />
<path
   d="m 906.81422,1028.5929 c -0.32724,-2.7839 -0.65468,-5.5695 -0.98228,-8.3565"
   id="lock_Runkel" />
<path
   d="m 764.39917,958.27247 c -1.92562,-2.0369 -3.85244,-4.07507 -5.78022,-6.11425"
   id="lock_Limburg" />
<path
   d="m 652.92576,903.65291 c -1.05613,2.59645 -2.11291,5.19452 -3.17022,7.79389"
   id="lock_Diez" />
<path
   d="m 406.62811,931.56122 c 0.0144,-2.80299 0.0288,-5.60772 0.0432,-8.41386"
   id="lock_Kalkofen" />
<path
   d="m 320.13008,865.52602 c -2.12937,1.82283 -4.26006,3.6468 -6.39182,5.47168"
   id="lock_Hollerich" />
<path
   d="m 534.90565,936.05287 c -0.9867,-2.62362 -1.97402,-5.24888 -2.96183,-7.87543"
   id="lock_Cramberg" />
<path
   d="m 488.41882,904.90413 c 0.96887,2.63027 1.93834,5.26216 2.90829,7.89537"
   id="lock_Scheid" />
<path
   d="m 271.46182,808.11299 c -1.55585,-2.3316 -3.11267,-4.66464 -4.67026,-6.99884"
   id="lock_Nassau" />
<path
   d="m 227.59488,748.14351 c -2.78242,0.33928 -5.56657,0.67878 -8.35211,1.01844"
   id="lock_Dausenau" />
<path
   d="m 192.14405,681.69461 c -1.42827,-2.41184 -2.85743,-4.8252 -4.2873,-7.23975"
   id="lock_Bad_Ems" />
<path
   d="m 145.19746,648.73821 c -2.66319,0.87432 -5.32803,1.74917 -7.9942,2.62447"
   id="lock_Nievern" />
<path
   d="m 61.203824,676.18776 c -0.12768,-2.80012 -0.255438,-5.60198 -0.383261,-8.40524"
   id="lock_Ahl" />
<path
   d="m 41.829613,643.06603 c -2.802807,0.035 -5.607366,0.07 -8.413317,0.105"
   id="lock_Lahnstein" />
</g>
</svg>
